<svg width="40" height="40" viewBox="0 0 40 40" fill="none" xmlns="http://www.w3.org/2000/svg">
<rect width="40" height="40" rx="20" fill="#FEEE8C"/>
<path d="M14.6588 12.7853H24.4825C25.7972 12.7853 26.8873 13.8036 26.9767 15.1153L27.8533 27.9724C27.9518 29.4167 26.8068 30.6425 25.3591 30.6425H13.7821C12.3345 30.6425 11.1894 29.4167 11.2879 27.9724L12.1645 15.1153C12.254 13.8036 13.344 12.7853 14.6588 12.7853Z" stroke="black"/>
<path d="M22.5722 16.5716V11.4288C22.5722 10.0086 21.421 8.85734 20.0008 8.85734V8.85734C18.5807 8.85734 17.4294 10.0086 17.4294 11.4288V16.5716" stroke="black"/>
<path d="M16.5722 22.5714V22.5714C16.5722 24.465 18.1073 26 20.0008 26V26C21.8944 26 23.4294 24.465 23.4294 22.5714V22.5714" stroke="black"/>
</svg>
