<svg width="28" height="28" viewBox="0 0 28 28" fill="none" xmlns="http://www.w3.org/2000/svg">
<rect width="28" height="28" rx="14" fill="white"/>
<mask id="path-2-inside-1" fill="white">
<path fill-rule="evenodd" clip-rule="evenodd" d="M15.9954 20.7905C12.6791 20.7905 9.99074 18.1021 9.99074 14.7859C9.99074 11.4696 12.6791 8.78125 15.9954 8.78125C19.3116 8.78125 22 11.4696 22 14.7859C22 16.642 21.1578 18.3015 19.8346 19.4029L19.8346 21.6938L17.795 20.5162C17.2268 20.6944 16.6223 20.7905 15.9954 20.7905Z"/>
</mask>
<path d="M19.8346 19.4029H19.3346V19.1686L19.5147 19.0187L19.8346 19.4029ZM19.8346 21.6938H20.3346L20.3346 22.5598L19.5846 22.1268L19.8346 21.6938ZM17.795 20.5162L17.6453 20.0391L17.8548 19.9734L18.045 20.0832L17.795 20.5162ZM10.4907 14.7859C10.4907 17.826 12.9552 20.2905 15.9954 20.2905V21.2905C12.403 21.2905 9.49074 18.3783 9.49074 14.7859H10.4907ZM15.9954 9.28125C12.9552 9.28125 10.4907 11.7458 10.4907 14.7859H9.49074C9.49074 11.1935 12.403 8.28125 15.9954 8.28125V9.28125ZM21.5 14.7859C21.5 11.7458 19.0355 9.28125 15.9954 9.28125V8.28125C19.5878 8.28125 22.5 11.1935 22.5 14.7859H21.5ZM19.5147 19.0187C20.7287 18.0082 21.5 16.4873 21.5 14.7859H22.5C22.5 16.7968 21.5869 18.5949 20.1545 19.7872L19.5147 19.0187ZM19.3346 21.6938L19.3346 19.4029H20.3346L20.3346 21.6938H19.3346ZM18.045 20.0832L20.0846 21.2608L19.5846 22.1268L17.545 20.9492L18.045 20.0832ZM15.9954 20.2905C16.571 20.2905 17.125 20.2023 17.6453 20.0391L17.9446 20.9932C17.3286 21.1865 16.6737 21.2905 15.9954 21.2905V20.2905Z" fill="black" mask="url(#path-2-inside-1)"/>
<mask id="path-4-inside-2" fill="white">
<path fill-rule="evenodd" clip-rule="evenodd" d="M12.6158 20.2316C16.2696 20.2316 19.2316 17.2696 19.2316 13.6158C19.2316 9.96198 16.2696 7 12.6158 7C8.96199 7 6 9.96198 6 13.6158C6 15.6678 6.93425 17.5016 8.40061 18.7151L8.40061 21.237L10.6542 19.9359C11.274 20.1281 11.9328 20.2316 12.6158 20.2316Z"/>
</mask>
<path fill-rule="evenodd" clip-rule="evenodd" d="M12.6158 20.2316C16.2696 20.2316 19.2316 17.2696 19.2316 13.6158C19.2316 9.96198 16.2696 7 12.6158 7C8.96199 7 6 9.96198 6 13.6158C6 15.6678 6.93425 17.5016 8.40061 18.7151L8.40061 21.237L10.6542 19.9359C11.274 20.1281 11.9328 20.2316 12.6158 20.2316Z" fill="white"/>
<path d="M8.40061 18.7151H8.90061V18.4799L8.71939 18.3299L8.40061 18.7151ZM8.40061 21.237H7.90061L7.90061 22.1031L8.65061 21.67L8.40061 21.237ZM10.6542 19.9359L10.8023 19.4583L10.5935 19.3936L10.4042 19.5029L10.6542 19.9359ZM18.7316 13.6158C18.7316 16.9934 15.9934 19.7316 12.6158 19.7316V20.7316C16.5457 20.7316 19.7316 17.5457 19.7316 13.6158H18.7316ZM12.6158 7.5C15.9934 7.5 18.7316 10.2381 18.7316 13.6158H19.7316C19.7316 9.68584 16.5457 6.5 12.6158 6.5V7.5ZM6.5 13.6158C6.5 10.2381 9.23813 7.5 12.6158 7.5V6.5C8.68584 6.5 5.5 9.68584 5.5 13.6158H6.5ZM8.71939 18.3299C7.36289 17.2073 6.5 15.5125 6.5 13.6158H5.5C5.5 15.8231 6.50562 17.7959 8.08184 19.1003L8.71939 18.3299ZM8.90061 21.237L8.90061 18.7151H7.90061L7.90061 21.237H8.90061ZM10.4042 19.5029L8.15061 20.804L8.65061 21.67L10.9042 20.3689L10.4042 19.5029ZM12.6158 19.7316C11.9836 19.7316 11.3747 19.6358 10.8023 19.4583L10.5062 20.4135C11.1734 20.6203 11.882 20.7316 12.6158 20.7316V19.7316Z" fill="black" mask="url(#path-4-inside-2)"/>
<path fill-rule="evenodd" clip-rule="evenodd" d="M12.21 11.6958C12.1108 11.6814 12.0035 11.6742 11.8883 11.6742H10V11H15V11.6742H13.8298C13.9847 11.8377 14.0922 12.0384 14.1525 12.2761C14.1543 12.2833 14.1561 12.2905 14.1578 12.2978H15V12.9719H14.2021C14.1608 13.3764 14.0041 13.7107 13.7323 13.9747C13.6556 14.0509 13.5718 14.1193 13.4808 14.18C13.2564 14.3299 12.9885 14.4328 12.6773 14.4888C12.8546 14.5281 13.0142 14.5983 13.156 14.6994C13.2364 14.7568 13.314 14.8276 13.3887 14.912C13.4458 14.9765 13.5012 15.0489 13.555 15.1292L14.8759 17H13.5106L12.1809 15.0871C12.0626 14.9073 11.9356 14.7809 11.7996 14.7079C11.6696 14.6292 11.4953 14.5899 11.2766 14.5899H10V13.7388H11.8883C12.2045 13.7388 12.4604 13.6838 12.6559 13.5738C12.6723 13.5646 12.6883 13.555 12.7039 13.5449C12.9048 13.4157 13.029 13.2247 13.0762 12.9719H10V12.2978H13.0408C12.9758 12.0899 12.8457 11.9354 12.6507 11.8343C12.5274 11.7668 12.3805 11.7206 12.21 11.6958ZM12.5515 14.2621C12.4716 14.2831 12.39 14.2994 12.3072 14.3116C12.3949 14.3796 12.4739 14.4564 12.5453 14.5388L12.5515 14.2621Z" fill="black"/>
</svg>
