<svg width="38" height="38" viewBox="0 0 38 38" fill="none" xmlns="http://www.w3.org/2000/svg">
<circle cx="19" cy="19" r="18.5" stroke="black"/>
<path d="M18.0394 25C18.0387 26 17.9762 27.225 18.9867 28C19.7236 27.3438 20 26.5 19.9868 25" stroke="black"/>
<path d="M17.8291 22C14.0533 15.2314 16.9876 9.84643 18.9267 8C19.9511 8.83469 22 11.3995 22 14.981C22 18.5626 20.7316 21.1527 20.0975 22H17.8291Z" stroke="black"/>
<path d="M18.2381 22L18 24H20L19.7143 22" stroke="black"/>
<path d="M16 17C14.6959 17.3504 12.3084 19.0409 13.1912 23C13.1912 23 14.2445 21.0292 15.7492 21.0292" stroke="black"/>
<path d="M22 17C23.3041 17.3504 25.6916 19.0409 24.8088 23C24.8088 23 23.7555 21.0292 22.2508 21.0292" stroke="black"/>
<line x1="17" y1="11.5" x2="21" y2="11.5" stroke="black"/>
<line x1="15.5" y1="25" x2="15.5" y2="30" stroke="black"/>
<line x1="22.5" y1="25" x2="22.5" y2="30" stroke="black"/>
<circle cx="19" cy="15" r="1.5" stroke="black"/>
</svg>
