<svg width="52" height="52" viewBox="0 0 52 52" fill="none" xmlns="http://www.w3.org/2000/svg">
<circle cx="26" cy="26" r="26" fill="#FEEE8C"/>
<path d="M25.0245 11.4635C25.1741 11.0029 25.8259 11.0029 25.9755 11.4635L28.6432 19.6738C28.7101 19.8798 28.9021 20.0193 29.1187 20.0193L37.7515 20.0193C38.2358 20.0193 38.4372 20.6391 38.0454 20.9238L31.0613 25.998C30.8861 26.1253 30.8128 26.351 30.8797 26.557L33.5474 34.7672C33.697 35.2279 33.1698 35.6109 32.7779 35.3262L25.7939 30.252C25.6186 30.1247 25.3814 30.1247 25.2061 30.252L18.2221 35.3262C17.8302 35.6109 17.303 35.2279 17.4526 34.7672L20.1203 26.557C20.1872 26.351 20.1139 26.1253 19.9387 25.998L12.9546 20.9238C12.5628 20.6391 12.7642 20.0193 13.2485 20.0193L21.8813 20.0193C22.0979 20.0193 22.2899 19.8798 22.3568 19.6738L25.0245 11.4635Z" fill="url(#paint0_linear)"/>
<path d="M41.7352 28.0746C42.0118 27.677 42.6356 27.8657 42.6455 28.35L42.6995 30.9933C42.704 31.2099 42.8473 31.3989 43.0547 31.4617L45.5853 32.2271C46.0489 32.3673 46.0622 33.0189 45.6047 33.1779L43.1075 34.0462C42.9029 34.1173 42.7674 34.3121 42.7718 34.5286L42.8259 37.1719C42.8358 37.6562 42.2202 37.8702 41.9275 37.4843L40.3301 35.3776C40.1993 35.205 39.9721 35.1363 39.7675 35.2074L37.2703 36.0756C36.8128 36.2347 36.419 35.7154 36.6957 35.3178L38.2056 33.1475C38.3293 32.9697 38.3245 32.7325 38.1936 32.5599L36.5962 30.4532C36.3035 30.0672 36.6758 29.5323 37.1394 29.6725L39.67 30.4379C39.8773 30.5006 40.1015 30.4227 40.2252 30.2449L41.7352 28.0746Z" fill="#A0E6FF"/>
<path d="M9.86738 28.0746C9.59075 27.677 8.96696 27.8657 8.95706 28.35L8.90301 30.9933C8.89858 31.2099 8.75521 31.3989 8.54787 31.4617L6.01724 32.2271C5.55363 32.3673 5.5403 33.0189 5.9978 33.1779L8.49503 34.0462C8.69963 34.1173 8.83516 34.3121 8.83073 34.5286L8.77668 37.1719C8.76678 37.6562 9.38234 37.8702 9.67499 37.4843L11.2724 35.3776C11.4033 35.205 11.6304 35.1363 11.835 35.2074L14.3322 36.0756C14.7897 36.2347 15.1835 35.7154 14.9069 35.3178L13.3969 33.1475C13.2732 32.9697 13.278 32.7325 13.4089 32.5599L15.0063 30.4532C15.299 30.0672 14.9268 29.5323 14.4632 29.6725L11.9325 30.4379C11.7252 30.5006 11.5011 30.4227 11.3774 30.2449L9.86738 28.0746Z" fill="#A0E6FF"/>
<defs>
<linearGradient id="paint0_linear" x1="11" y1="10" x2="42.9457" y2="14.1114" gradientUnits="userSpaceOnUse">
<stop offset="0.265625" stop-color="#78D4F5"/>
<stop offset="1" stop-color="#67DDE4"/>
</linearGradient>
</defs>
</svg>
