<svg width="24" height="16" viewBox="0 0 24 16" fill="none" xmlns="http://www.w3.org/2000/svg">
<path d="M2.32336 12.9669H0.601562V0.800781H14.8115V12.9669H9.05919M14.8115 3.92297H4.27221V7.36632H14.8115" stroke="black"/>
<path d="M15.2853 12.9693H14.8125V3.92578H18.1704M22.0211 12.9693H23.4018V8.65111M18.1704 3.92578H18.6765C21.2862 3.92578 23.4018 6.04138 23.4018 8.65111V8.65111M18.1704 3.92578V3.92578C18.1704 6.53551 20.286 8.65111 22.8957 8.65111H23.4018" stroke="black"/>
<path d="M7.29537 13.675C7.29537 14.585 6.55768 15.3227 5.64769 15.3227C4.7377 15.3227 4 14.585 4 13.675C4 12.765 4.7377 12.0273 5.64769 12.0273C6.55768 12.0273 7.29537 12.765 7.29537 13.675Z" stroke="black"/>
<circle cx="18.6282" cy="13.675" r="1.64769" stroke="black"/>
<path d="M9.08885 13.2886C9.08885 11.4076 7.56404 9.88281 5.6831 9.88281C3.80215 9.88281 2.27734 11.4076 2.27734 13.2886" stroke="black"/>
<path d="M22.0537 13.2886C22.0537 11.4076 20.5289 9.88281 18.6479 9.88281C16.767 9.88281 15.2422 11.4076 15.2422 13.2886" stroke="black"/>
</svg>
