<svg width="36" height="36" viewBox="0 0 36 36" fill="none" xmlns="http://www.w3.org/2000/svg">
<circle cx="18" cy="12.8571" r="12.3571" stroke="#540000"/>
<path d="M17.0877 7.17558C17.4411 6.3882 18.5589 6.38821 18.9123 7.17558L19.9054 9.3883C20.0508 9.71229 20.3572 9.93486 20.7103 9.97304L23.1216 10.2338C23.9796 10.3266 24.325 11.3897 23.6854 11.9691L21.8879 13.5974C21.6247 13.8358 21.5077 14.1959 21.5805 14.5435L22.0776 16.9174C22.2545 17.7621 21.3502 18.4192 20.6015 17.9899L18.4974 16.7835C18.1893 16.6068 17.8107 16.6068 17.5026 16.7835L15.3985 17.9899C14.6498 18.4192 13.7455 17.7621 13.9224 16.9174L14.4195 14.5435C14.4923 14.1959 14.3753 13.8358 14.1121 13.5974L12.3146 11.9691C11.675 11.3897 12.0204 10.3266 12.8784 10.2338L15.2897 9.97304C15.6428 9.93486 15.9492 9.71229 16.0946 9.3883L17.0877 7.17558Z" fill="#540000"/>
<path d="M12.3429 26.7429V34C12.3429 34.824 13.2836 35.2944 13.9429 34.8L17.8875 31.8415C18.2556 31.5655 18.7646 31.5762 19.1207 31.8676L22.5382 34.6637C23.1911 35.1979 24.1714 34.7334 24.1714 33.8898V26.7429" stroke="#540000" stroke-linecap="round"/>
<path d="M18 21.6C13.1715 21.6 9.25714 17.6857 9.25714 12.8571" stroke="#540000" stroke-linecap="round"/>
</svg>
