<svg width="38" height="38" viewBox="0 0 38 38" fill="none" xmlns="http://www.w3.org/2000/svg">
<circle cx="19" cy="19" r="18.5" stroke="black"/>
<path d="M13.6584 11.7852H23.4822C24.7969 11.7852 25.887 12.8034 25.9764 14.1151L26.853 26.9722C26.9515 28.4165 25.8065 29.6423 24.3588 29.6423H12.7818C11.3342 29.6423 10.1891 28.4165 10.2876 26.9722L11.1642 14.1151C11.2537 12.8034 12.3437 11.7852 13.6584 11.7852Z" stroke="black"/>
<path d="M17.5 25L14.5 19L17.5 21L28 13.5L17.5 25Z" fill="#FF002B"/>
<path d="M21.5725 15.5737V10.4308C21.5725 9.01064 20.4213 7.85938 19.0011 7.85938V7.85938C17.581 7.85938 16.4297 9.01064 16.4297 10.4308V15.5737" stroke="black"/>
</svg>
