<svg width="20" height="21" viewBox="0 0 20 21" fill="none" xmlns="http://www.w3.org/2000/svg">
<path d="M14.75 18.7162L9.80023 14.5914C9.33667 14.2051 8.66333 14.2051 8.19977 14.5914L3.25 18.7162V5.25C3.25 3.17893 4.92893 1.5 7 1.5H17.2823C17.0667 1.61664 16.8359 1.75641 16.6047 1.92157C15.6943 2.57182 14.75 3.63807 14.75 5.25V5.27979V5.30967V5.33963V5.36969V5.39982V5.43005V5.46035V5.49074V5.52122V5.55178V5.58242V5.61314V5.64394V5.67482V5.70579V5.73683V5.76795V5.79915V5.83043V5.86179V5.89322V5.92473V5.95631V5.98797V6.0197V6.05151V6.08338V6.11534V6.14736V6.17946V6.21162V6.24386V6.27617V6.30854V6.34099V6.3735V6.40608V6.43873V6.47144V6.50422V6.53706V6.56997V6.60294V6.63598V6.66908V6.70224V6.73547V6.76875V6.8021V6.8355V6.86897V6.90249V6.93607V6.96971V7.00341V7.03716V7.07097V7.10484V7.13876V7.17273V7.20676V7.24084V7.27498V7.30916V7.3434V7.37769V7.41203V7.44642V7.48086V7.51534V7.54988V7.58446V7.61909V7.65377V7.68849V7.72325V7.75807V7.79292V7.82782V7.86276V7.89775V7.93277V7.96784V8.00295V8.0381V8.07328V8.10851V8.14377V8.17908V8.21442V8.24979V8.28521V8.32065V8.35614V8.39165V8.42721V8.46279V8.49841V8.53406V8.56974V8.60545V8.64119V8.67696V8.71277V8.7486V8.78445V8.82034V8.85625V8.89219V8.92815V8.96414V9.00016V9.0362V9.07226V9.10835V9.14445V9.18058V9.21673V9.2529V9.28909V9.32531V9.36154V9.39778V9.43405V9.47033V9.50663V9.54295V9.57928V9.61563V9.65199V9.68836V9.72475V9.76115V9.79757V9.83399V9.87043V9.90687V9.94333V9.97979V10.0163V10.0527V10.0892V10.1257V10.1622V10.1987V10.2353V10.2718V10.3083V10.3448V10.3814V10.4179V10.4544V10.491V10.5275V10.564V10.6006V10.6371V10.6736V10.7102V10.7467V10.7832V10.8197V10.8562V10.8928V10.9293V10.9658V11.0023V11.0387V11.0752V11.1117V11.1481V11.1846V11.221V11.2575V11.2939V11.3303V11.3667V11.4031V11.4394V11.4758V11.5121V11.5484V11.5848V11.621V11.6573V11.6936V11.7298V11.766V11.8022V11.8384V11.8746V11.9107V11.9468V11.9829V12.019V12.055V12.0911V12.1271V12.163V12.199V12.2349V12.2708V12.3067V12.3425V12.3783V12.4141V12.4499V12.4856V12.5213V12.557V12.5926V12.6282V12.6638V12.6993V12.7348V12.7703V12.8057V12.8411V12.8764V12.9118V12.947V12.9823V13.0175V13.0527V13.0878V13.1229V13.1579V13.1929V13.2279V13.2628V13.2977V13.3325V13.3673V13.402V13.4367V13.4714V13.506V13.5405V13.575V13.6095V13.6439V13.6783V13.7126V13.7468V13.781V13.8152V13.8493V13.8834V13.9174V13.9513V13.9852V14.019V14.0528V14.0865V14.1202V14.1538V14.1874V14.2208V14.2543V14.2877V14.321V14.3542V14.3874V14.4205V14.4536V14.4866V14.5195V14.5524V14.5852V14.618V14.6506V14.6832V14.7158V14.7483V14.7807V14.813V14.8453V14.8775V14.9096V14.9417V14.9736V15.0055V15.0374V15.0692V15.1008V15.1325V15.164V15.1955V15.2269V15.2582V15.2894V15.3206V15.3516V15.3826V15.4136V15.4444V15.4752V15.5058V15.5364V15.5669V15.5974V15.6277V15.658V15.6881V15.7182V15.7482V15.7782V15.808V15.8377V15.8674V15.8969V15.9264V15.9558V15.9851V16.0143V16.0434V16.0724V16.1014V16.1302V16.1589V16.1876V16.2161V16.2446V16.2729V16.3012V16.3294V16.3574V16.3854V16.4132V16.441V16.4687V16.4962V16.5237V16.5511V16.5783V16.6055V16.6325V16.6595V16.6863V16.7131V16.7397V16.7662V16.7926V16.819V16.8452V16.8712V16.8972V16.9231V16.9489V16.9745V17.0001V17.0255V17.0508V17.076V17.1011V17.1261V17.1509V17.1757V17.2003V17.2248V17.2492V17.2735V17.2976V17.3216V17.3456V17.3693V17.393V17.4166V17.44V17.4633V17.4865V17.5096V17.5325V17.5553V17.578V17.6006V17.623V17.6453V17.6675V17.6895V17.7114V17.7332V17.7549V17.7764V17.7978V17.8191V17.8402V17.8612V17.8821V17.9028V17.9234V17.9439V17.9642V17.9844V18.0045V18.0244V18.0442V18.0638V18.0833V18.1027V18.1219V18.141V18.1599V18.1787V18.1974V18.2159V18.2343V18.2525V18.2706V18.2885V18.3063V18.324V18.3415V18.3588V18.376V18.3931V18.41V18.4267V18.4433V18.4598V18.4761V18.4922V18.5082V18.524V18.5397V18.5553V18.5706V18.5858V18.6009V18.6158V18.6306V18.6452V18.6596V18.6739V18.688V18.7019V18.7157V18.7162Z" stroke="black" stroke-width="0.5"/>
<line x1="17.25" y1="6.5" x2="17.25" y2="14" stroke="black" stroke-width="0.5" stroke-linecap="round"/>
</svg>
