<svg width="20" height="21" viewBox="0 0 20 21" fill="none" xmlns="http://www.w3.org/2000/svg">
<mask id="path-1-inside-1" fill="white">
<path fill-rule="evenodd" clip-rule="evenodd" d="M13.5 12.7319L17.25 14.897C17.9167 15.2819 18.75 14.8008 18.75 14.031L18.75 7.96878C18.75 7.19898 17.9167 6.71785 17.25 7.10275L13.5 9.26781V12.7319Z"/>
</mask>
<path d="M17.25 14.897L17.5 14.464L17.5 14.464L17.25 14.897ZM13.5 12.7319H13V13.0206L13.25 13.1649L13.5 12.7319ZM18.75 14.031L19.25 14.031V14.031L18.75 14.031ZM18.75 7.96878L18.25 7.96878V7.96878L18.75 7.96878ZM17.25 7.10275L17.5 7.53576L17.5 7.53576L17.25 7.10275ZM13.5 9.26781L13.25 8.8348L13 8.97914V9.26781H13.5ZM17.5 14.464L13.75 12.2989L13.25 13.1649L17 15.33L17.5 14.464ZM18.25 14.031C18.25 14.4159 17.8333 14.6564 17.5 14.464L17 15.33C18 15.9073 19.25 15.1857 19.25 14.031H18.25ZM18.25 7.96878L18.25 14.031L19.25 14.031L19.25 7.96878L18.25 7.96878ZM17.5 7.53576C17.8333 7.34331 18.25 7.58388 18.25 7.96878H19.25C19.25 6.81408 18 6.09239 17 6.66974L17.5 7.53576ZM13.75 9.70083L17.5 7.53576L17 6.66974L13.25 8.8348L13.75 9.70083ZM13 9.26781V12.7319H14V9.26781H13Z" fill="black" mask="url(#path-1-inside-1)"/>
<rect x="1.25" y="5.75" width="12.5" height="10.5" rx="1.75" stroke="black" stroke-width="0.5"/>
</svg>
