<svg width="20" height="20" viewBox="0 0 20 20" fill="none" xmlns="http://www.w3.org/2000/svg">
<path d="M10.0001 5.99425C7.78335 5.99425 5.99429 7.78331 5.99429 10.0001C5.99429 12.2169 7.78335 14.006 10.0001 14.006C12.2169 14.006 14.006 12.2169 14.006 10.0001C14.006 7.78331 12.2169 5.99425 10.0001 5.99425ZM10.0001 12.6036C8.56656 12.6036 7.39663 11.4337 7.39663 10.0001C7.39663 8.56651 8.56656 7.39659 10.0001 7.39659C11.4337 7.39659 12.6037 8.56651 12.6037 10.0001C12.6037 11.4337 11.4337 12.6036 10.0001 12.6036ZM14.1701 4.89659C13.6525 4.89659 13.2345 5.31456 13.2345 5.83214C13.2345 6.34972 13.6525 6.76768 14.1701 6.76768C14.6877 6.76768 15.1056 6.35167 15.1056 5.83214C15.1058 5.70924 15.0817 5.58751 15.0347 5.47394C14.9878 5.36036 14.9189 5.25717 14.8319 5.17026C14.745 5.08336 14.6418 5.01445 14.5283 4.96749C14.4147 4.92053 14.293 4.89644 14.1701 4.89659V4.89659ZM17.8087 10.0001C17.8087 8.92198 17.8185 7.85362 17.758 6.77745C17.6974 5.52745 17.4123 4.41808 16.4982 3.50401C15.5822 2.588 14.4748 2.30479 13.2248 2.24425C12.1466 2.1837 11.0783 2.19347 10.0021 2.19347C8.92398 2.19347 7.85562 2.1837 6.77945 2.24425C5.52945 2.30479 4.42007 2.58995 3.50601 3.50401C2.58999 4.42003 2.30679 5.52745 2.24624 6.77745C2.1857 7.85558 2.19546 8.92393 2.19546 10.0001C2.19546 11.0763 2.1857 12.1466 2.24624 13.2228C2.30679 14.4728 2.59195 15.5821 3.50601 16.4962C4.42202 17.4122 5.52945 17.6954 6.77945 17.756C7.85757 17.8165 8.92593 17.8067 10.0021 17.8067C11.0802 17.8067 12.1486 17.8165 13.2248 17.756C14.4748 17.6954 15.5841 17.4103 16.4982 16.4962C17.4142 15.5802 17.6974 14.4728 17.758 13.2228C17.8205 12.1466 17.8087 11.0782 17.8087 10.0001V10.0001ZM16.09 14.6056C15.9474 14.961 15.7755 15.2267 15.5001 15.5001C15.2248 15.7755 14.9611 15.9474 14.6056 16.0899C13.5783 16.4982 11.1388 16.4064 10.0001 16.4064C8.86148 16.4064 6.42007 16.4982 5.39273 16.0919C5.03726 15.9493 4.77163 15.7775 4.4982 15.5021C4.22281 15.2267 4.05093 14.963 3.90835 14.6075C3.5021 13.5782 3.5939 11.1388 3.5939 10.0001C3.5939 8.86143 3.5021 6.42003 3.90835 5.39268C4.05093 5.03722 4.22281 4.77159 4.4982 4.49815C4.77359 4.22472 5.03726 4.05089 5.39273 3.90831C6.42007 3.50206 8.86148 3.59386 10.0001 3.59386C11.1388 3.59386 13.5802 3.50206 14.6076 3.90831C14.963 4.05089 15.2287 4.22276 15.5021 4.49815C15.7775 4.77354 15.9494 5.03722 16.0919 5.39268C16.4982 6.42003 16.4064 8.86143 16.4064 10.0001C16.4064 11.1388 16.4982 13.5782 16.09 14.6056Z" fill="#828282"/>
</svg>
