<svg width="24" height="24" viewBox="0 0 24 24" fill="none" xmlns="http://www.w3.org/2000/svg">
<circle cx="12" cy="12" r="11.75" stroke="black" stroke-width="0.5"/>
<path d="M12.256 8.804C12.256 8.564 12.344 8.352 12.52 8.168C12.704 7.976 12.912 7.88 13.144 7.88C13.328 7.88 13.476 7.94 13.588 8.06C13.7 8.18 13.756 8.328 13.756 8.504C13.756 8.744 13.664 8.956 13.48 9.14C13.296 9.324 13.088 9.416 12.856 9.416C12.68 9.416 12.536 9.36 12.424 9.248C12.312 9.128 12.256 8.98 12.256 8.804ZM11.896 11.852C11.96 11.66 11.992 11.512 11.992 11.408C11.992 11.208 11.904 11.108 11.728 11.108C11.544 11.108 11.38 11.204 11.236 11.396C11.092 11.588 10.94 11.9 10.78 12.332L10.612 12.776H10.384L10.696 11.9C10.856 11.444 11.068 11.124 11.332 10.94C11.604 10.756 11.888 10.664 12.184 10.664C12.712 10.664 12.976 10.916 12.976 11.42C12.976 11.684 12.912 11.992 12.784 12.344L11.5 15.98C11.436 16.172 11.404 16.32 11.404 16.424C11.404 16.624 11.5 16.724 11.692 16.724C11.86 16.724 12.016 16.632 12.16 16.448C12.304 16.264 12.46 15.948 12.628 15.5L12.796 15.056H13.024L12.712 15.932C12.552 16.372 12.34 16.688 12.076 16.88C11.82 17.072 11.54 17.168 11.236 17.168C10.676 17.168 10.396 16.924 10.396 16.436C10.396 16.204 10.468 15.888 10.612 15.488L11.896 11.852Z" fill="black"/>
</svg>
