<svg width="36" height="36" viewBox="0 0 36 36" fill="none" xmlns="http://www.w3.org/2000/svg">
<rect width="36" height="36" rx="18" fill="white"/>
<mask id="path-2-inside-1" fill="white">
<path fill-rule="evenodd" clip-rule="evenodd" d="M10.0263 11.0849C7.94957 13.1616 7.94957 16.5287 10.0263 18.6054L17.8886 26.4677L17.8891 26.4673L17.8905 26.4687L25.7529 18.6063C27.8296 16.5296 27.8296 13.1626 25.7529 11.0859C23.6761 9.00912 20.3091 9.00913 18.2324 11.0859L17.8901 11.4282L17.5468 11.0849C15.4701 9.00816 12.103 9.00816 10.0263 11.0849Z"/>
</mask>
<path d="M10.0263 18.6054L9.31919 19.3125H9.31919L10.0263 18.6054ZM17.8886 26.4677L17.1815 27.1748L17.8879 27.8812L18.595 27.1755L17.8886 26.4677ZM17.8891 26.4673L18.596 25.7599L17.8896 25.054L17.1827 25.7594L17.8891 26.4673ZM17.8905 26.4687L17.1837 27.176L17.8908 27.8827L18.5976 27.1758L17.8905 26.4687ZM25.7529 18.6063L26.46 19.3135L25.7529 18.6063ZM25.7529 11.0859L26.46 10.3787V10.3787L25.7529 11.0859ZM18.2324 11.0859L17.5253 10.3787V10.3787L18.2324 11.0859ZM17.8901 11.4282L17.183 12.1353L17.8901 12.8424L18.5972 12.1353L17.8901 11.4282ZM17.5468 11.0849L16.8397 11.792V11.792L17.5468 11.0849ZM10.7334 17.8983C9.0472 16.2121 9.0472 13.4782 10.7334 11.792L9.31919 10.3778C6.85194 12.845 6.85194 16.8452 9.31919 19.3125L10.7334 17.8983ZM18.5957 25.7606L10.7334 17.8983L9.31919 19.3125L17.1815 27.1748L18.5957 25.7606ZM17.1827 25.7594L17.1822 25.7599L18.595 27.1755L18.5955 27.1751L17.1827 25.7594ZM18.5974 25.7613L18.596 25.7599L17.1822 27.1746L17.1837 27.176L18.5974 25.7613ZM25.0457 17.8992L17.1834 25.7616L18.5976 27.1758L26.46 19.3135L25.0457 17.8992ZM25.0457 11.793C26.732 13.4792 26.732 16.213 25.0457 17.8992L26.46 19.3135C28.9272 16.8462 28.9272 12.846 26.46 10.3787L25.0457 11.793ZM18.9395 11.793C20.6257 10.1068 23.3595 10.1068 25.0457 11.793L26.46 10.3787C23.9927 7.91149 19.9925 7.9115 17.5253 10.3787L18.9395 11.793ZM18.5972 12.1353L18.9395 11.793L17.5253 10.3787L17.183 10.7211L18.5972 12.1353ZM16.8397 11.792L17.183 12.1353L18.5972 10.7211L18.2539 10.3778L16.8397 11.792ZM10.7334 11.792C12.4196 10.1058 15.1535 10.1058 16.8397 11.792L18.2539 10.3778C15.7866 7.91053 11.7864 7.91053 9.31919 10.3778L10.7334 11.792Z" fill="black" mask="url(#path-2-inside-1)"/>
</svg>
