<svg width="20" height="20" viewBox="0 0 20 20" fill="none" xmlns="http://www.w3.org/2000/svg">
<circle cx="10" cy="10" r="10" fill="#E0EBED"/>
<rect x="4.45492" y="8.436" width="2.93839" height="6.06635" rx="1.46919" fill="white"/>
<path d="M13.744 13.5071H10.0568C8.95225 13.5071 8.05683 12.6117 8.05683 11.5071L8.05683 9.47866C8.04103 9.30489 8.04735 8.84359 8.19901 8.38862C8.38858 7.8199 8.76773 7.48814 9.14687 7.01421C9.52602 6.54028 10.2369 5.78198 10.2369 5.45023C10.2369 5.26066 10.1895 4.40757 10.2369 4.26539C10.2843 4.12321 10.5213 3.79146 10.9478 3.79146C11.3744 3.79146 11.9905 4.40757 11.9905 5.45023C11.9905 6.28435 11.7061 7.21958 11.5639 7.58293H14.0758C14.4549 7.58293 14.9289 7.86729 14.9289 8.43601C14.9289 8.89099 14.6129 9.16271 14.4549 9.2417C14.6129 9.32069 14.9289 9.59241 14.9289 10.0474C14.9289 10.5024 14.5181 10.7741 14.3127 10.8531C14.4391 10.9163 14.6919 11.1564 14.6919 11.6114C14.6919 12.0663 14.3443 12.3065 14.1706 12.3697C14.2654 12.4644 14.4238 12.6092 14.4549 12.7962C14.5023 13.0806 14.3601 13.5071 13.744 13.5071Z" fill="white"/>
</svg>
