<svg width="20" height="20" viewBox="0 0 20 20" fill="none" xmlns="http://www.w3.org/2000/svg">
<circle cx="10" cy="10" r="10" fill="#E0EBED"/>
<path fill-rule="evenodd" clip-rule="evenodd" d="M9.97772 15.015C8.49273 14.2409 5.29526 12.0671 4.38531 9.56478C3.24786 6.43682 5.57014 5.34677 6.18625 5.1572C6.80237 4.96762 8.7455 4.68326 9.97772 6.67378C9.97773 6.67379 9.97773 6.6738 9.97774 6.67381C9.97775 6.6738 9.97775 6.67379 9.97776 6.67378C11.21 4.68326 13.1531 4.96762 13.7692 5.1572C14.3853 5.34677 16.7076 6.43682 15.5702 9.56478C14.6602 12.0671 11.4627 14.2409 9.97776 15.015C9.97775 15.015 9.97775 15.015 9.97774 15.015C9.97773 15.015 9.97773 15.015 9.97772 15.015Z" fill="#FF7878"/>
</svg>
