<svg width="20" height="20" viewBox="0 0 20 20" fill="none" xmlns="http://www.w3.org/2000/svg">
<circle cx="10" cy="10" r="10" fill="#E0EBED"/>
<path d="M13.4586 7.68079C13.7461 7.57385 14.3451 7.4262 14.9759 7.67115C15.6882 7.94778 15.9442 8.54978 16.1009 8.83351" stroke="black" stroke-linecap="round"/>
<path d="M6.63637 7.68079C6.34888 7.57385 5.74983 7.4262 5.11907 7.67115C4.40672 7.94778 4.15078 8.54978 3.99404 8.83351" stroke="black" stroke-linecap="round"/>
<path d="M7.2039 16.1611C7.39348 15.5766 8.2276 14.4076 10.0475 14.4076C11.8674 14.4076 12.7015 15.5766 12.8911 16.1611" stroke="black" stroke-linecap="round"/>
<ellipse cx="5.59245" cy="10.6161" rx="1.23223" ry="1.32701" fill="black"/>
<ellipse cx="14.5023" cy="10.6161" rx="1.23223" ry="1.32701" fill="black"/>
<path d="M17.2513 18.3412C17.2513 19.1526 16.5935 19.8104 15.7821 19.8104C14.9707 19.8104 14.3129 19.1526 14.3129 18.3412C14.3129 17.5298 15.7821 14.4549 15.7821 14.4549C15.7821 14.4549 17.2513 17.5298 17.2513 18.3412Z" fill="#A0E6FF"/>
</svg>
