<svg width="20" height="20" viewBox="0 0 20 20" fill="none" xmlns="http://www.w3.org/2000/svg">
<path d="M18.3848 5.7832C18.2851 5.41218 18.0898 5.07384 17.8184 4.80202C17.5469 4.53021 17.2088 4.33446 16.8379 4.23438C15.4727 3.86719 10 3.86719 10 3.86719C10 3.86719 4.52734 3.86719 3.16211 4.23242C2.79106 4.33219 2.45278 4.52782 2.18126 4.79969C1.90974 5.07155 1.71453 5.41007 1.61523 5.78125C1.25 7.14844 1.25 10 1.25 10C1.25 10 1.25 12.8516 1.61523 14.2168C1.81641 14.9707 2.41016 15.5645 3.16211 15.7656C4.52734 16.1328 10 16.1328 10 16.1328C10 16.1328 15.4727 16.1328 16.8379 15.7656C17.5918 15.5645 18.1836 14.9707 18.3848 14.2168C18.75 12.8516 18.75 10 18.75 10C18.75 10 18.75 7.14844 18.3848 5.7832ZM8.26172 12.6172V7.38281L12.793 9.98047L8.26172 12.6172Z" fill="#828282"/>
</svg>
