<?xml version="1.0" encoding="utf-8"?>
<!-- Generator: Adobe Illustrator 24.1.0, SVG Export Plug-In . SVG Version: 6.00 Build 0)  -->
<svg version="1.1" id="Layer_1" xmlns="http://www.w3.org/2000/svg" xmlns:xlink="http://www.w3.org/1999/xlink" x="0px" y="0px"
	 viewBox="0 0 252.2 252.2" style="enable-background:new 0 0 252.2 252.2;" xml:space="preserve">
<style type="text/css">
	.st0{fill:#161616;}
	.st1{fill:#FFFFFF;}
</style>
<circle class="st0" cx="126.1" cy="126.1" r="81.1"/>
<path class="st1" d="M169.9,114.7h-1.9c-5.3-18.9-22.4-32-42.1-32.1c-19.6,0.1-36.7,13.2-41.8,32.1h-1.9c-2.7,0-5,2.3-4.9,5v12.9
	c0,2.7,2.2,4.9,4.9,4.9h1.8c5.1,19,22.3,32.1,41.9,32.1c19.7,0,36.9-13.1,42.2-32.1h1.8c2.7,0,5-2.2,5-4.9v-12.9
	C174.9,116.9,172.7,114.7,169.9,114.7C169.9,114.7,169.9,114.7,169.9,114.7z M162.7,114.7h-11.9c-1.6-9.8-5.1-18.2-9.9-24
	C151.4,95.1,159.3,103.9,162.7,114.7z M142.6,120.8h2.2l1.1,3.3l1.1-3.3h2.2l-1.9,4.6l1.3,3.5l3.2-8.1h2.6l-4.4,10.6h-2.2l-1.8-4.7
	l-1.8,4.7H142l-4.4-10.6h2.6l3.2,8.1l1.3-3.4L142.6,120.8z M128.5,88c7.8,2,14.7,12.6,17.2,26.7h-17.2V88z M123.4,88v26.7h-16.9
	C109,100.7,115.6,90,123.4,88z M103,120.8h2.2l1.1,3.3l1.1-3.3h2.2l-1.8,4.6l1.3,3.5l3.2-8.1h2.6l-4.4,10.6h-2.2l-1.8-4.7l-1.8,4.7
	h-2.2l-4.5-10.6h2.6l3.2,8.1l1.3-3.4L103,120.8z M111,90.8c-5.2,6.5-8.3,15.2-9.7,24H89.5C92.8,104,100.7,95.2,111,90.8z
	 M89.4,137.5h11.9c1.4,8.7,4.4,17.5,9.6,23.9C100.6,157,92.7,148.3,89.4,137.5z M123.4,164.2c-4.2-1-8.2-4.6-11.5-10.3
	c-2.7-5.1-4.6-10.6-5.5-16.4h16.9V164.2z M126.1,126.8l-1.8,4.7h-2.2l-4.4-10.6h2.6l3.2,8.1l1.3-3.4l-1.9-4.6h2.2l1.1,3.3l1.1-3.3
	h2.2l-1.8,4.6l1.3,3.4l3.2-8.1h2.6l-4.4,10.6h-2.2L126.1,126.8z M128.5,164.2v-26.7h17.2C143.3,151.5,136.5,162.3,128.5,164.2
	L128.5,164.2z M141.1,161.5c5.3-6.5,8.4-15.2,9.8-23.9h11.9C159.4,148.3,151.5,157.1,141.1,161.5L141.1,161.5z"/>
</svg>
