<?xml version="1.0" encoding="utf-8"?>
<!-- Generator: Adobe Illustrator 24.1.0, SVG Export Plug-In . SVG Version: 6.00 Build 0)  -->
<svg version="1.1" id="Layer_1" xmlns="http://www.w3.org/2000/svg" xmlns:xlink="http://www.w3.org/1999/xlink" x="0px" y="0px"
	 viewBox="0 0 252.2 252.2" style="enable-background:new 0 0 252.2 252.2;" xml:space="preserve">
<style type="text/css">
	.st0{fill:#161616;}
	.st1{fill:#FFFFFF;}
</style>
<circle class="st0" cx="126.1" cy="126.1" r="81.1"/>
<path class="st1" d="M121.7,148.1c0.6-0.7,0.5-1.8-0.2-2.4c-0.6-0.6-1.6-0.6-2.3,0c-0.7,0.7-0.7,1.8,0,2.4
	C119.9,148.8,121,148.8,121.7,148.1C121.7,148.1,121.7,148.1,121.7,148.1z"/>
<path class="st1" d="M122.3,107.5v3.5c0.2,5.7,5,10.2,10.7,10c5.5-0.2,9.9-4.6,10-10v-3.5c1-0.1,1.7-0.9,1.6-1.9
	c-0.1-0.9-0.7-1.5-1.6-1.6h-3.5c-1,0.1-1.7,0.9-1.6,1.9c0.1,0.9,0.7,1.5,1.6,1.6v3.5c0.1,3.8-2.8,7-6.6,7.2s-7-2.8-7.2-6.6
	c0-0.2,0-0.4,0-0.5v-3.5c1-0.1,1.7-0.9,1.6-1.9c-0.1-0.9-0.7-1.5-1.6-1.6h-3.5c-1-0.1-1.8,0.6-1.9,1.6s0.6,1.8,1.6,1.9
	C122.1,107.5,122.2,107.5,122.3,107.5z"/>
<path class="st1" d="M102,175.2c0.7,0.7,1.7,0.7,2.4,0c0,0,0,0,0,0l5.3-5.3c1.7-1.7,2.6-4.1,2.3-6.5l1.9-1.8
	c1.5-1.4,3.5-2.3,5.6-2.2h22.7c4.1,0,7.9-1.6,10.8-4.4l0.1-0.1l15.5-18.6c2.5-2.9,2.1-7.3-0.8-9.8c-2.9-2.5-7.3-2.1-9.8,0.8
	l-1.7,1.7V95.2c0-1-0.8-1.7-1.7-1.7h-44.4c-1,0-1.7,0.8-1.7,1.7v38.7c-6.5,1.3-12,5.6-14.8,11.6c-2.3-0.1-4.5,0.7-6.1,2.3l-5.3,5.3
	c-0.3,0.3-0.5,0.8-0.5,1.2c0,0.5,0.2,0.9,0.5,1.2L102,175.2z M153.1,96.9v35.6l-5,5.2c-1.3-1.6-3.3-2.5-5.4-2.6h-20
	c-0.1,0-0.2,0-0.3-0.1c-2.7-1.1-5.6-1.7-8.5-1.6c-0.6,0-1.2,0-1.7,0.1V96.9H153.1z M110.7,137.1c3.5-0.5,7.1-0.1,10.3,1.2
	c0.5,0.2,1.1,0.3,1.7,0.3h20c1.9-0.1,3.5,1.4,3.6,3.3s-1.4,3.5-3.3,3.6c-0.1,0-0.2,0-0.4,0h-15c-1-0.1-1.8,0.6-1.9,1.6
	c-0.1,1,0.6,1.8,1.6,1.9c0.1,0,0.2,0,0.3,0h15c3.8,0,6.9-3.1,6.9-6.9c0-0.3,0-0.6-0.1-0.9l11.2-11.5l0.1-0.1
	c1.2-1.5,3.3-1.8,4.8-0.7c1.5,1.2,1.8,3.3,0.7,4.8c-0.1,0.1-0.2,0.2-0.2,0.3l-15.4,18.5c-2.2,2.2-5.2,3.4-8.4,3.4h-22.7
	c-3,0-5.9,1.1-8,3.2l-0.8,0.7c-0.3-0.5-0.7-0.9-1.1-1.3l-10.6-10.6c-0.6-0.6-1.2-1-1.9-1.4C99.8,141.3,104.9,137.7,110.7,137.1
	L110.7,137.1z M90.2,150.3c1.8-1.8,4.7-1.8,6.5,0c0,0,0,0,0,0l10.6,10.6c1.8,1.8,1.8,4.7,0,6.5c0,0,0,0,0,0l-4.1,4.1l-17.1-17.1
	L90.2,150.3z"/>
<path class="st1" d="M132.7,88.4l-10-8.6c-0.8-0.7-0.9-1.8-0.2-2.6c0.7-0.8,1.8-0.9,2.6-0.2c0,0,0,0,0,0l7.5,6.5l7-6.4
	c0.7-0.7,1.9-0.8,2.6-0.1c0.7,0.7,0.8,1.9,0.1,2.6c-0.1,0.1-0.1,0.1-0.2,0.2L132.7,88.4z"/>
</svg>
