<?xml version="1.0" encoding="utf-8"?>
<!-- Generator: Adobe Illustrator 24.1.0, SVG Export Plug-In . SVG Version: 6.00 Build 0)  -->
<svg version="1.1" id="Layer_1" xmlns="http://www.w3.org/2000/svg" xmlns:xlink="http://www.w3.org/1999/xlink" x="0px" y="0px"
	 viewBox="0 0 252.2 252.2" style="enable-background:new 0 0 252.2 252.2;" xml:space="preserve">
<style type="text/css">
	.st0{fill:#161616;}
	.st1{fill:#FFFFFF;}
</style>
<circle class="st0" cx="126.1" cy="126.1" r="81.1"/>
<path class="st1" d="M174.2,97H161V83.7c0-3.7-3-6.7-6.6-6.7H94.4c-3.7,0-6.7,3-6.7,6.7l0,0v79.8h-5c-0.9,0-1.7,0.7-1.7,1.7
	c0,0,0,0,0,0v3.3c0,3.7,3,6.6,6.7,6.6h56.5c3.7,0,6.6-3,6.6-6.6v-18.3h13.3c3.7,0,6.6-3,6.6-6.6v-15h8.3c0.9,0,1.6-0.7,1.7-1.6
	v-23.3C180.9,100,177.9,97,174.2,97C174.3,97,174.3,97,174.2,97z M87.8,171.9c-1.8,0-3.3-1.5-3.3-3.3l0,0v-1.7h53.2v1.7
	c0,1.2,0.3,2.3,0.9,3.3H87.8z M147.6,83.7v84.8c0.1,1.8-1.3,3.4-3.1,3.5c-1.8,0.1-3.4-1.3-3.5-3.1c0-0.1,0-0.2,0-0.4v-3.3
	c0-0.9-0.7-1.7-1.7-1.7H91.1V83.7c0-1.8,1.5-3.3,3.3-3.3l0,0h54.1C148,81.4,147.7,82.5,147.6,83.7z M151,146.9V83.7
	c-0.1-1.8,1.3-3.4,3.1-3.5c1.8-0.1,3.4,1.3,3.5,3.1c0,0.1,0,0.2,0,0.4v59.9c0,1.2,0.3,2.3,0.9,3.3L151,146.9z M167.6,103.7v39.9
	c-0.1,1.8-1.7,3.2-3.5,3.1c-1.7-0.1-3-1.4-3.1-3.1v-43.2h7.6C167.9,101.4,167.6,102.5,167.6,103.7L167.6,103.7z M177.6,125.3H171
	v-21.6c0.1-1.8,1.7-3.2,3.5-3.1c1.7,0.1,3,1.4,3.1,3.1V125.3z"/>
<rect x="97.8" y="122" class="st1" width="38.2" height="3.3"/>
<rect x="107.7" y="115.3" class="st1" width="34.9" height="3.3"/>
<rect x="101.1" y="115.3" class="st1" width="3.3" height="3.3"/>
<rect x="97.8" y="136.9" class="st1" width="38.2" height="3.3"/>
<rect x="107.7" y="130.3" class="st1" width="34.9" height="3.3"/>
<rect x="101.1" y="130.3" class="st1" width="3.3" height="3.3"/>
<rect x="97.8" y="151.9" class="st1" width="38.2" height="3.3"/>
<rect x="107.7" y="145.2" class="st1" width="34.9" height="3.3"/>
<rect x="101.1" y="145.2" class="st1" width="3.3" height="3.3"/>
<path class="st1" d="M128.7,92.9h-3.9c-0.2-1.2-0.8-2.3-1.7-3.1h5.6c0.5-0.1,0.9-0.5,0.8-1c0-0.4-0.4-0.8-0.8-0.8h-15.1
	c-0.7,0-1.3,0.6-1.3,1.3c0,0.7,0.6,1.3,1.3,1.3h2.5c2.8,0,4.6,0.9,5.2,2.4h-8c-0.5,0.1-0.9,0.5-0.8,1c0,0.4,0.4,0.8,0.8,0.8h8.1
	c-0.1,0.6-0.4,1.2-0.8,1.6c-0.6,0.6-1.4,1-2.2,1.2c-0.5,0.1-1.1,0.2-1.6,0.3c-0.6,0-1.2,0-1.8,0c-0.5,0-1,0.2-1.3,0.5
	c-0.2,0.3-0.3,0.6-0.3,0.9c0.1,1.1,0.9,1.6,1.6,2.3s9,9.4,9,9.4c0.5,0.5,1.4,0.5,1.9,0.1c0.6-0.5,0.7-1.5,0.2-2.1c0,0,0,0,0,0
	l-0.1-0.1c-2.9-3.1-5.8-6.3-8.5-8.7c4.2-0.2,7-2.1,7.5-5.3h3.9c0.5-0.1,0.9-0.5,0.8-1C129.4,93.2,129.1,92.9,128.7,92.9L128.7,92.9z
	"/>
</svg>
