<?xml version="1.0" encoding="utf-8"?>
<!-- Generator: Adobe Illustrator 24.1.0, SVG Export Plug-In . SVG Version: 6.00 Build 0)  -->
<svg version="1.1" id="Layer_1" xmlns="http://www.w3.org/2000/svg" xmlns:xlink="http://www.w3.org/1999/xlink" x="0px" y="0px"
	 viewBox="0 0 252.2 252.2" style="enable-background:new 0 0 252.2 252.2;" xml:space="preserve">
<style type="text/css">
	.st0{fill:#161616;}
	.st1{fill:#FFFFFF;}
</style>
<circle class="st0" cx="126.1" cy="126.1" r="81.1"/>
<path class="st1" d="M116.2,140.1c-3.9,0-7.1,3.2-7.1,7.1s3.2,7.1,7.1,7.1c3.9,0,7.1-3.2,7.1-7.1
	C123.3,143.3,120.1,140.1,116.2,140.1C116.2,140.1,116.2,140.1,116.2,140.1z M116.2,150.7c-2,0-3.5-1.6-3.5-3.5c0-2,1.6-3.5,3.5-3.5
	c2,0,3.5,1.6,3.5,3.5l0,0C119.7,149.1,118.1,150.7,116.2,150.7z M169.5,134.9v7.6c0,1.9-1.5,3.4-3.4,3.4l0,0h-3.6
	c-0.7-5.1-5.5-8.7-10.6-7.9c-4.1,0.6-7.3,3.8-7.9,7.9h-18.5c-0.7-5.1-5.5-8.7-10.6-7.9c-4.1,0.6-7.3,3.8-7.9,7.9h-4.6
	c-1.9,0-3.4-1.5-3.4-3.4v-7.6H169.5z M153.2,140.1c-3.9,0-7.1,3.2-7.1,7.1c0,3.9,3.2,7.1,7.1,7.1s7.1-3.2,7.1-7.1c0,0,0,0,0,0
	C160.3,143.3,157.1,140.1,153.2,140.1z M153.2,150.7c-2,0-3.5-1.6-3.5-3.5s1.6-3.5,3.5-3.5s3.5,1.6,3.5,3.5v0
	C156.8,149.1,155.2,150.7,153.2,150.7z M168.2,127.3L154.8,114c-0.9-0.8-2-1.3-3.2-1.3h-6.8v-2.5c0-1.9-1.5-3.4-3.4-3.4c0,0,0,0,0,0
	h-39.1c-1.9,0-3.4,1.5-3.4,3.4v0.5l-24.1,1.5l34.8,3.3l-44,2.3l43.9,3.7l-28.3,2.5l17.7,2.4v6.7h70.6v-2.5
	C169.5,129.3,169.1,128.1,168.2,127.3L168.2,127.3z M162.4,127.7h-13c-0.3,0-0.5-0.2-0.5-0.5v-10c0-0.3,0.2-0.5,0.5-0.5h2.5
	c0.1,0,0.3,0.1,0.4,0.2l10.5,10c0.2,0.2,0.2,0.5,0,0.7C162.6,127.6,162.5,127.7,162.4,127.7L162.4,127.7z"/>
</svg>
