<?xml version="1.0" encoding="utf-8"?>
<!-- Generator: Adobe Illustrator 24.1.0, SVG Export Plug-In . SVG Version: 6.00 Build 0)  -->
<svg version="1.1" id="Layer_1" xmlns="http://www.w3.org/2000/svg" xmlns:xlink="http://www.w3.org/1999/xlink" x="0px" y="0px"
	 viewBox="0 0 252.2 252.2" style="enable-background:new 0 0 252.2 252.2;" xml:space="preserve">
<style type="text/css">
	.st0{fill:#161616;}
</style>
<path class="st0" d="M205.6,113.3h-5.8l-8.6,4.5c-1-0.6-2-1-3.1-1.3l-10.8-2.7v-1.2c4.8-3.4,7.7-8.9,7.7-14.7v-4.5
	c0-10-7.8-18.3-17.4-18.6c-0.5,0-1,0-1.4,0l2.8-6.6l-13.6-13.5l-8,5.2c-3-1.7-6.3-3.1-9.6-4l-2-9.3h-19.5l-2,9.3
	c-3.3,0.9-6.6,2.3-9.6,4l-8-5.2L83.2,68.3l2.8,6.6h-0.3c-9.9-0.3-18.2,7.5-18.5,17.4c0,0.2,0,0.3,0,0.5v5.1c0,5.9,2.9,11.4,7.7,14.7
	v1.2l-7,1.8L55,108.2h-8.4v53.1l25.2,8.4h4.9l0.6-2.1l7.7,4.6c0.1,4.2,3.5,7.6,7.7,7.7c0.2,4.2,3.5,7.5,7.7,7.7
	c0.2,4.2,3.5,7.5,7.7,7.7c0.2,4.4,3.9,7.9,8.3,7.7c1.5-0.1,2.9-0.5,4.2-1.4l2.3,2c1.4,1.3,3.3,2,5.2,2h0.5c4.3,0,7.7-3.4,7.8-7.7
	c4.2-0.1,7.6-3.5,7.7-7.7c4.2-0.1,7.6-3.5,7.7-7.7c4.3-0.1,7.7-3.6,7.7-7.9c0-0.3,0-0.5,0-0.8l46.2-23.1L205.6,113.3z M180,93.4v4.5
	c0,4.6-2.5,8.8-6.4,11.1l-1.3,0.7v8.1l12.8,3.2l-28.2,14.8V129c0-3.3-1.3-6.6-3.7-8.9l8.8-2.2v-8.1l-1.3-0.7
	c-4-2.3-6.4-6.5-6.4-11.1v-5.1c0-7.1,5.8-12.8,12.8-12.8c0.1,0,0.2,0,0.4,0C174.4,80.2,180,86.2,180,93.4z M130,133.9l-11.6-3.7
	c-5.3-1.7-11-1.9-16.4-0.8l-1.5,0.3V129c0-3.5,2.4-6.6,5.8-7.5l14.7-3.7v-8.1l-1.3-0.7c-4-2.3-6.4-6.5-6.4-11.1v-5.1
	c0-7.1,5.8-12.8,12.8-12.8c0.1,0,0.3,0,0.4,0c6.8,0.2,12.4,6.2,12.4,13.5v4.5c0,4.6-2.5,8.8-6.4,11.1l-1.3,0.7v8.1l14.7,3.7
	c3.4,0.9,5.8,3.9,5.8,7.5v9.6l-0.6,0.3h-1.6l-15.8-4.5C132.5,134.1,131.3,133.9,130,133.9z M101.1,85c7.1-13.8,24.1-19.3,38-12.1
	c5.1,2.6,9.3,6.8,12,11.9c-1.2,2.5-1.9,5.2-1.9,8v5.1c0,5.9,2.9,11.4,7.7,14.7v1.2l-10.3,2.6l-10.3-2.6v-1.2
	c4.8-3.4,7.7-8.9,7.7-14.7v-4.5c0-10-7.8-18.3-17.4-18.6c-9.9-0.3-18.2,7.6-18.5,17.5c0,0.1,0,0.3,0,0.4v5.1
	c0,5.9,2.9,11.4,7.7,14.7v1.2l-10.2,2.6l-10.3-2.6v-1.2c4.8-3.4,7.7-8.9,7.7-14.7v-4.5C103,90.5,102.3,87.6,101.1,85z M89.3,69.5
	l8.2-8.2l7.2,4.7l1.4-0.8c3.4-2.1,7.2-3.7,11.1-4.6l1.6-0.4l1.8-8.4h11.2l1.8,8.4l1.6,0.4c3.9,0.9,7.7,2.5,11.1,4.6l1.4,0.8l7.2-4.7
	l8.2,8.2l-2.9,6.8c-2,0.9-3.8,2.1-5.4,3.6c-0.1,0.1-0.2,0.2-0.3,0.3c-9.8-15.6-30.3-20.3-45.9-10.6c-4.3,2.7-8,6.4-10.7,10.7
	c-1.6-1.7-3.5-3-5.7-4L89.3,69.5z M80,117.9v-8.1l-1.3-0.7c-4-2.3-6.4-6.5-6.4-11.1v-5.1c0-7.1,5.8-12.8,12.9-12.8
	c0.1,0,0.2,0,0.3,0c6.8,0.2,12.4,6.2,12.4,13.5v4.5c0,4.6-2.5,8.8-6.4,11.1l-1.3,0.7v8.1L99,120c-2.3,2.4-3.7,5.6-3.7,9v1.9l-8,1.8
	l0.2-0.7l0.1-4.7l-13.5-7.9L80,117.9z M51.8,113.3h1.9l18.4,10.8l-9.3,37.2l-11-3.7V113.3z M72.7,164.6l-5-1.7l9-36.2l5.8,3.4v0.7
	l-9.7,33.7H72.7z M90.2,172c0-0.7,0.3-1.5,0.8-2l4.5-4.5c0.5-0.5,1.3-0.8,2-0.8c1.6,0,2.9,1.3,2.9,2.9l0,0c0,0.7-0.3,1.5-0.8,2
	l-4.5,4.5c-0.5,0.5-1.3,0.8-2,0.8C91.5,174.9,90.2,173.6,90.2,172z M97.9,179.7c0-0.7,0.3-1.5,0.8-2l4.5-4.5c1.1-1.1,2.9-1.1,4.1,0
	c1.1,1.1,1.1,2.9,0,4.1l-4.5,4.5c-1.1,1.1-3,1.1-4.1,0C98.2,181.2,97.9,180.5,97.9,179.7L97.9,179.7z M105.6,187.4
	c0-0.8,0.3-1.5,0.8-2l4.5-4.5c1.2-1.1,3-1,4.1,0.2c1,1.1,1,2.8,0,3.9l-4.5,4.5c-1.1,1.1-2.9,1.1-4.1,0
	C105.9,188.9,105.6,188.2,105.6,187.4L105.6,187.4z M116.2,198c-1.6,0-2.9-1.3-2.8-2.9c0-0.7,0.3-1.5,0.8-2l4.5-4.5
	c1.1-1.1,2.9-1.1,4.1,0s1.1,2.9,0,4.1l-4.5,4.5C117.7,197.6,116.9,197.9,116.2,198L116.2,198z M128.6,200.5h-0.5
	c-0.7,0-1.3-0.2-1.8-0.7l-1.9-1.7l1.9-1.9c0.7-0.7,1.2-1.5,1.6-2.4l2.3,1.9c1.1,1,1.3,2.6,0.3,3.8
	C130.1,200.2,129.4,200.5,128.6,200.5z M151.6,177.4h-0.4c-0.6,0-1.3-0.2-1.8-0.6l-13.9-11.6l-3.3,4l13.5,11.2
	c1.1,1,1.1,2.7,0.1,3.8c-0.5,0.5-1.1,0.8-1.8,0.9h-0.6c-0.6,0-1.2-0.2-1.7-0.6l-13.9-11.6l-3.3,3.9l13.5,11.2c1.1,1,1.3,2.6,0.3,3.8
	c-0.5,0.6-1.2,0.9-2,1c-1,0-1.9-0.4-2.7-1l-5.8-4.8c-1.3-2.6-3.9-4.4-6.9-4.5c-0.2-4.2-3.5-7.5-7.7-7.7c-0.2-4.2-3.5-7.5-7.7-7.7
	c-0.1-4.3-3.7-7.7-8-7.7c-2.1,0-4.2,0.9-5.7,2.4l-4.5,4.5c-0.3,0.3-0.5,0.6-0.7,0.9l-7.9-4.7l6.9-24.2l17.3-3.9
	c4.6-1,9.3-0.8,13.8,0.6l3.8,1.2l-12.8,6.4c-2.9,1.4-4.8,4.4-4.8,7.7v0.5c0,4.7,3.9,8.6,8.6,8.6c1.5,0,3.1-0.4,4.4-1.2l9.6-5.7
	c2-1.1,4.4-0.9,6.1,0.6l21.7,19.5c0.6,0.5,0.9,1.3,0.9,2.1C154.3,176.1,153.1,177.4,151.6,177.4L151.6,177.4z M200.5,147.6
	l-43.2,21.6c-0.1-0.2-0.3-0.3-0.4-0.4l-21.7-19.5c-3.4-3-8.3-3.5-12.2-1.2l-9.6,5.7c-0.5,0.3-1.2,0.5-1.8,0.5
	c-1.9,0-3.5-1.6-3.5-3.5v-0.5c0-1.3,0.7-2.5,1.9-3.1l14.3-7.1c2.5-1.2,5.3-1.5,8-0.7l16.1,4.6l3.9,0.1l48.1-25.3L200.5,147.6z"/>
</svg>
