<svg id="Layer_1" data-name="Layer 1" xmlns="http://www.w3.org/2000/svg" viewBox="0 0 252.24 252.24"><defs><style>.cls-1{fill:#ff002b;}</style></defs><path class="cls-1" d="M126.12,75a51.15,51.15,0,1,0,51.15,51.15A51.21,51.21,0,0,0,126.12,75Zm14.19,30.34a.78.78,0,0,1-.77.77h-6.15a2.74,2.74,0,0,0-2.74,2.73v6.44h8.75a.78.78,0,0,1,.77.84l-.77,9.08a.77.77,0,0,1-.77.71h-8V156a.76.76,0,0,1-.77.77h-11a.76.76,0,0,1-.77-.77V125.88h-5.51a.78.78,0,0,1-.77-.77V116a.78.78,0,0,1,.77-.78h5.51V106.5a11,11,0,0,1,11-11h10.4a.77.77,0,0,1,.77.77Z"/></svg>