<?xml version="1.0" encoding="utf-8"?>
<!-- Generator: Adobe Illustrator 24.1.0, SVG Export Plug-In . SVG Version: 6.00 Build 0)  -->
<svg version="1.1" id="Layer_1" xmlns="http://www.w3.org/2000/svg" xmlns:xlink="http://www.w3.org/1999/xlink" x="0px" y="0px"
	 viewBox="0 0 252.2 252.2" style="enable-background:new 0 0 252.2 252.2;" xml:space="preserve">
<style type="text/css">
	.st0{fill:#161616;}
	.st1{fill:#FFFFFF;}
</style>
<circle class="st0" cx="126.1" cy="126.1" r="81.1"/>
<path class="st1" d="M157.1,157.1l-5.4-51.8c-0.1-1.1-1-1.9-2.1-1.9h-10.2v-2.3c0-7.3-5.9-13.2-13.2-13.2c-7.3,0-13.2,5.9-13.2,13.2
	v2.3h-10.2c-1.1,0-2,0.8-2.1,1.9l-5.4,51.8c-0.1,0.6,0.1,1.2,0.5,1.6c0.4,0.5,1,0.7,1.6,0.7H155c1.2,0,2.1-1,2.1-2.1
	C157.1,157.3,157.1,157.2,157.1,157.1L157.1,157.1z M117.2,101.1c0-4.9,4-8.9,8.9-8.9c4.9,0,8.9,4,8.9,8.9v2.3h-17.8L117.2,101.1z
	 M99.6,155.2l5-47.6h8.3v4.7c0.1,1.2,1.1,2.1,2.3,2c1.1-0.1,1.9-0.9,2-2v-4.7H135v4.7c0.1,1.2,1.1,2.1,2.3,2c1.1-0.1,1.9-0.9,2-2
	v-4.7h8.3l5,47.6H99.6z"/>
<path class="st1" d="M117.9,144.3l-7.7-11.5c-0.8-1.1-0.4-2.6,0.7-3.4c1.1-0.8,2.6-0.4,3.4,0.7l5,7.4l19.4-13
	c1.1-0.7,2.7-0.4,3.4,0.8c0.7,1.1,0.4,2.5-0.6,3.3L117.9,144.3z"/>
</svg>
