<svg id="Layer_1" data-name="Layer 1" xmlns="http://www.w3.org/2000/svg" viewBox="0 0 252.24 252.24"><defs><style>.cls-1{fill:#ff002b;}.cls-2{fill:#540000;}</style></defs><path class="cls-1" d="M137.64,102.44c-.32-.25-31.45,37.94-.61-.54,3.66-3.38-1.07-3.94-2.3-5.68a16.17,16.17,0,0,1-5.81,4.82L127.41,103c-8.84,11.38-16.52,22.57-25.75,33.2a198.84,198.84,0,0,0,16.94-20.52c.16.22.31.57.68.45-4,8.53-11.9,13.32-16.58,21.34l-1.28-1q-3.19,3.67-6.68,7.25a5.17,5.17,0,0,0-.81,3.87c8.23-6,14.58-14.64,21.42-22.22-2.63,3.39-5.33,7.52-8.61,10.42-4.41,4.35-7.48,9-11.84,12.58l-.75.56c.13.59.28,1.16.41,1.66.86,2.22,2.74,4.46,5.86,3.77l1.13-1.46a5.55,5.55,0,0,1,2,1.57c2.78-2.87,5.49-5.8,8.22-8.71a79.17,79.17,0,0,1,10.39-10.48c-3.64,3.36-7,6.91-10.39,10.48-2.59,3-5.09,6.19-7.68,9.29a2.19,2.19,0,0,0,2.39.87c1.72-.22,4.68-2.31,6.51-4,5.43-4.33,11.08-9.14,16.2-13.72a86.28,86.28,0,0,0,11.72-13.28c3.5-5.83,5.77-12,6-17.71C147,103.36,139.37,104,137.64,102.44Z"/><path class="cls-2" d="M39.65,134.73h-2V122.79h-5v-2.07H44.6v2.07h-5Z"/><path class="cls-2" d="M51,134.73v-14h2v5.75a4,4,0,0,1,1.79-.38c.31,0,.92.06,1.82.17,1.39.16,2.3.25,2.74.25a4.63,4.63,0,0,0,1.9-.36v-5.43h2.05v14H61.26v-6.51a4.81,4.81,0,0,1-1.9.35c-.44,0-1.35-.08-2.74-.24-.9-.11-1.51-.17-1.82-.17a4,4,0,0,0-1.79.37v6.2Z"/><path class="cls-2" d="M71.2,120.72h2v14h-2Z"/><path class="cls-2" d="M91.18,132.88A5.19,5.19,0,0,1,89,134.49a8.58,8.58,0,0,1-3.21.56,7,7,0,0,1-3.17-.76,7.39,7.39,0,0,1-2.6-2.11l1.47-1.37a5.46,5.46,0,0,0,4.3,2.2,6.07,6.07,0,0,0,2.93-.66,2.06,2.06,0,0,0,1.23-1.88,1.82,1.82,0,0,0-.58-1.47,2.68,2.68,0,0,0-1.39-.57,18.07,18.07,0,0,0-2.19-.1,6.72,6.72,0,0,1-3.84-.92,3.1,3.1,0,0,1-1.32-2.71,3.87,3.87,0,0,1,.66-2.14,4.82,4.82,0,0,1,1.85-1.63,5.57,5.57,0,0,1,2.65-.62,8.51,8.51,0,0,1,3,.52,7.85,7.85,0,0,1,2.6,1.69L90.1,124A8,8,0,0,0,88,122.74a6.19,6.19,0,0,0-2.28-.37,3.29,3.29,0,0,0-1.43.32,2.78,2.78,0,0,0-1.07.86,1.87,1.87,0,0,0-.39,1.13c0,1.08,1,1.62,3,1.62a11.62,11.62,0,0,1,3.74.48,3.37,3.37,0,0,1,1.88,1.38,4.44,4.44,0,0,1,.54,2.31A3.76,3.76,0,0,1,91.18,132.88Z"/><path class="cls-2" d="M120.73,131.45a7.76,7.76,0,0,1-10.34,2.61,7.27,7.27,0,0,1-2.72-2.73,7.53,7.53,0,0,1-1-3.81,6.68,6.68,0,0,1,1-3.66,7.42,7.42,0,0,1,2.78-2.61,7.68,7.68,0,0,1,3.73-.94,7.51,7.51,0,0,1,6.52,3.68,7.28,7.28,0,0,1,1,3.76A6.9,6.9,0,0,1,120.73,131.45ZM119,124.93a5.22,5.22,0,0,0-2-1.88,5.77,5.77,0,0,0-2.75-.68,5.66,5.66,0,0,0-2.81.7,5,5,0,0,0-2,1.92,5.4,5.4,0,0,0-.73,2.77,4.87,4.87,0,0,0,.77,2.67,5.66,5.66,0,0,0,4.78,2.58,5.48,5.48,0,0,0,2.75-.72,5.42,5.42,0,0,0,2-1.94,5.22,5.22,0,0,0,.74-2.72A5,5,0,0,0,119,124.93Z"/><path class="cls-2" d="M130.76,128.93a8.9,8.9,0,0,0-1.42.11,4.19,4.19,0,0,0-1.23.43v5.26h-2.05v-14h7.37a5.08,5.08,0,0,1,2.29.49,3.69,3.69,0,0,1,1.56,1.42,4.16,4.16,0,0,1,.56,2.22,3.91,3.91,0,0,1-.84,2.59,4.41,4.41,0,0,1-2.39,1.41l1.09,2.24a9.54,9.54,0,0,0,.76,1,1.78,1.78,0,0,0,.59.45,2,2,0,0,0,.76.12h.2l.45,0v2.08a11.16,11.16,0,0,1-1.79-.11,3.2,3.2,0,0,1-1.38-.59,3.83,3.83,0,0,1-1.18-1.51l-1.71-3.59Zm-1.45-2a10.2,10.2,0,0,1,1.45-.1h2.67a2.68,2.68,0,0,0,1.75-.52,2,2,0,0,0,.63-1.62,1.72,1.72,0,0,0-.64-1.5,2.89,2.89,0,0,0-1.74-.47h-5.32v4.66A3.52,3.52,0,0,1,129.31,127Z"/><path class="cls-2" d="M159.9,134.73h-2V122.79h-5v-2.07h11.93v2.07H159.9Z"/><path class="cls-2" d="M171.23,134.73v-14h2v5.75a4,4,0,0,1,1.79-.38c.31,0,.92.06,1.82.17,1.39.16,2.3.25,2.74.25a4.63,4.63,0,0,0,1.9-.36v-5.43h2.05v14h-2.05v-6.51a4.81,4.81,0,0,1-1.9.35c-.44,0-1.35-.08-2.74-.24-.9-.11-1.51-.17-1.82-.17a4,4,0,0,0-1.79.37v6.2Z"/><path class="cls-2" d="M197.31,120.47l6.74,14.26h-2.29l-.92-2h-4.26a9.41,9.41,0,0,0-2.11.21,5.36,5.36,0,0,0-1.43.54,1.74,1.74,0,0,0-.71.64l-.36.65h-2.21l6.07-12.53-.78-1.73Zm-.45,4.23-3.1,6.71a3,3,0,0,1,1.31-.57,9.64,9.64,0,0,1,2.26-.22h2.59Z"/><path class="cls-2" d="M203.7,129.8l-.35.28-.16.13a2.24,2.24,0,0,1-.69.35,1.64,1.64,0,0,1-.73,0,6.63,6.63,0,0,1-.86-.24A7.3,7.3,0,0,1,202,132.8a3.24,3.24,0,0,0,1.46-.35,10.78,10.78,0,0,0,1.51-1Z"/><path class="cls-2" d="M214.63,134.73h-2V122.79h-5v-2.07h11.93v2.07h-4.94Z"/></svg>