<?xml version="1.0" encoding="utf-8"?>
<!-- Generator: Adobe Illustrator 24.1.0, SVG Export Plug-In . SVG Version: 6.00 Build 0)  -->
<svg version="1.1" id="Layer_1" xmlns="http://www.w3.org/2000/svg" xmlns:xlink="http://www.w3.org/1999/xlink" x="0px" y="0px"
	 viewBox="0 0 252.2 252.2" style="enable-background:new 0 0 252.2 252.2;" xml:space="preserve">
<style type="text/css">
	.st0{fill:#161616;}
</style>
<path class="st0" d="M71.4,165.2h20.9v5.2H71.4V165.2z M60.9,170.4h5.2v-5.2h-5.2L60.9,170.4z M193.1,45.3h13.8v67.8h-13.7l-0.6-0.3
	c-0.4-0.2-0.9-0.5-1.4-0.8v55.9c0,7.2-5.8,13-13,13h-38.1l3.5,10.4h3.3c7.2,0,13,5.8,13,13l0,0v2.6H76.6v-2.6c0-7.2,5.8-13,13-13
	l0,0H93l3.5-10.4H58.3c-7.2,0-13-5.8-13-13V74c0-7.2,5.8-13,13-13h83.9c17.9,0,35.4-5.3,50.2-15.2L193.1,45.3z M141.8,97.4
	c-7,0-13.4-4.1-16.5-10.4h-1.8c-2.8,0-5.6,0.9-7.8,2.6l-7,5.2h-6.1v31.3h6.4l4,4c2.4,2.4,5.8,3.8,9.2,3.8H160c1.4,0.1,2.7-1,2.8-2.4
	c0.1-1.4-1-2.7-2.4-2.8c-0.1,0-0.2,0-0.3,0h-13v-5.2h15.6c1.4,0.1,2.7-1,2.8-2.4c0.1-1.4-1-2.7-2.4-2.8c-0.1,0-0.2,0-0.3,0H147v-5.2
	h18.2c1.4-0.1,2.5-1.3,2.4-2.8c-0.1-1.3-1.1-2.4-2.4-2.4H147v-5.2h20.9c1.4,0,2.6-1.2,2.6-2.6s-1.2-2.6-2.6-2.6L141.8,97.4z
	 M123.5,79.2c0-0.9,0.1-1.7,0.2-2.6H60.9v78.2h114.7v-51.9l-0.4-0.2c-0.6,1.7-1.7,3.1-3.2,4c0.7,1.2,1,2.5,1.1,3.8
	c0,2.7-1.4,5.2-3.7,6.6c0.7,1.2,1,2.5,1.1,3.8c0,2.7-1.4,5.2-3.6,6.6c2.1,3.7,0.8,8.5-2.9,10.6c-1.2,0.7-2.5,1-3.9,1h-37.8
	c-4.8,0-9.5-1.9-12.9-5.3l-2.5-2.5h-4.1v7.8H81.8V81.8h20.9v7.8h4.3l5.6-4.2c3.2-2.4,7-3.6,10.9-3.7h0.2
	C123.6,80.9,123.5,80.1,123.5,79.2z M87,87v46.9h10.4V87H87z M188.9,104.4l2.4,1.5V52.6c-12.7,7.6-27,12.2-41.7,13.3v26.4h18.2
	c3.1,0,6,1.9,7.2,4.8C179.8,98.7,184.4,101.6,188.9,104.4L188.9,104.4z M141.8,66.2c-7.2,0-13,5.8-13,13c0,7.2,5.8,13,13,13h2.6
	V66.2H141.8z M147,196.5H89.6c-3.3,0-6.3,2.1-7.4,5.2h72.1C153.2,198.6,150.3,196.5,147,196.5L147,196.5z M134.7,180.9h-32.8
	l-3.5,10.4h39.7L134.7,180.9z M186.1,167.9v-59.1c-1.7-1.1-3.5-2.2-5.2-3.2v49.2c0,2.9-2.3,5.2-5.2,5.2H60.9c-2.9,0-5.2-2.3-5.2-5.2
	V76.6c0-2.9,2.3-5.2,5.2-5.2h64.4c0.9-1.9,2.2-3.7,3.7-5.2H58.3c-4.3,0-7.8,3.5-7.8,7.8c0,0,0,0,0,0v93.9c0,4.3,3.5,7.8,7.8,7.8
	h119.9C182.6,175.7,186.1,172.2,186.1,167.9C186.1,167.8,186.1,167.8,186.1,167.9L186.1,167.9z M201.7,50.5h-5.2v57.4h5.2V50.5z
	 M154.5,70.6l0.6,5.2c7.3-0.9,14.4-2.5,21.4-4.9l-1.7-4.9C168.2,68.2,161.4,69.8,154.5,70.6z M179.9,64.1l1.9,4.8
	c1.8-0.7,3.6-1.5,5.4-2.3l-2.2-4.7C183.3,62.7,181.6,63.4,179.9,64.1L179.9,64.1z M66.2,113.1h10.4v-5.2H66.2L66.2,113.1z
	 M66.2,123.5h10.4v-5.2H66.2L66.2,123.5z M66.2,134h10.4v-5.2H66.2L66.2,134z M66.2,144.4h10.4v-5.2H66.2L66.2,144.4z M160,144.4
	h-5.2v5.2h5.2L160,144.4z M170.4,144.4h-5.2v5.2h5.2V144.4z M149.6,144.4h-5.2v5.2h5.2V144.4z"/>
</svg>
