<?xml version="1.0" encoding="utf-8"?>
<!-- Generator: Adobe Illustrator 24.1.0, SVG Export Plug-In . SVG Version: 6.00 Build 0)  -->
<svg version="1.1" id="Layer_1" xmlns="http://www.w3.org/2000/svg" xmlns:xlink="http://www.w3.org/1999/xlink" x="0px" y="0px"
	 viewBox="0 0 252.2 252.2" style="enable-background:new 0 0 252.2 252.2;" xml:space="preserve">
<style type="text/css">
	.st0{fill:#161616;}
	.st1{fill:#FFFFFF;}
</style>
<circle class="st0" cx="126.1" cy="126.1" r="81.1"/>
<path class="st1" d="M157.6,99.3v-2.4c0-6.7-5.4-12.1-12.1-12.1h-34c-4,0-7.2,3.3-7.2,7.3v51.2H89.7v24.2h72.8v-24.2h-14.6v-44
	L157.6,99.3z M109.1,92c0-1.3,1.1-2.4,2.4-2.4s2.4,1.1,2.4,2.4v7.3h29.1V153h-34V92z M157.6,148.1v14.6H94.6v-14.5h9.7v4.9h-4.8v4.9
	h53.4V153h-4.9v-4.9L157.6,148.1z M118.8,94.4V92c0-0.8-0.1-1.6-0.4-2.4h27.1c3.1,0,5.8,1.9,6.9,4.8L118.8,94.4z"/>
<path class="st1" d="M114,104.1h24.2v4.9H114V104.1z"/>
<path class="st1" d="M135.7,124h-3.9c-0.2-1.2-0.8-2.3-1.7-3.1h5.6c0.5,0.1,1-0.3,1-0.8c0.1-0.5-0.3-1-0.8-1c-0.1,0-0.1,0-0.2,0
	h-15.1c-0.7-0.1-1.3,0.5-1.4,1.2c-0.1,0.7,0.5,1.3,1.2,1.4c0.1,0,0.2,0,0.2,0h2.5c2.9,0,4.6,0.9,5.1,2.4h-8c-0.5,0.1-0.9,0.5-0.8,1
	c0,0.4,0.4,0.8,0.8,0.8h8.1c-0.1,0.6-0.4,1.2-0.8,1.6c-0.6,0.6-1.4,1-2.2,1.2c-0.5,0.1-1.1,0.2-1.6,0.2c-0.6,0.1-1.2,0-1.8,0
	c-0.5,0-1,0.1-1.3,0.5c-0.2,0.3-0.3,0.6-0.3,0.9c0,1.1,0.9,1.6,1.6,2.3s9,9.4,9,9.4c0.6,0.5,1.5,0.5,2.1-0.1
	c0.5-0.5,0.5-1.3,0.1-1.9l-0.1-0.1c-2.9-3.1-5.8-6.3-8.5-8.7c4.2-0.2,7-2.1,7.5-5.3h3.9c0.5,0.1,1-0.3,1-0.8c0.1-0.5-0.3-1-0.8-1
	C135.8,124,135.7,124,135.7,124L135.7,124z"/>
</svg>
