<?xml version="1.0" encoding="utf-8"?>
<!-- Generator: Adobe Illustrator 24.1.0, SVG Export Plug-In . SVG Version: 6.00 Build 0)  -->
<svg version="1.1" id="Layer_1" xmlns="http://www.w3.org/2000/svg" xmlns:xlink="http://www.w3.org/1999/xlink" x="0px" y="0px"
	 viewBox="0 0 252.2 252.2" style="enable-background:new 0 0 252.2 252.2;" xml:space="preserve">
<style type="text/css">
	.st0{fill:#161616;}
</style>
<path class="st0" d="M194.2,177.7h-2.3v-35.2c0-1.3-1.1-2.3-2.4-2.3h-28.1v-4.1c1.5-2.6,9.7-15.4,15.3-24h8.1
	c6.5,0,11.7-5.3,11.7-11.7c0-1.3-1.1-2.3-2.3-2.3h-23.5c-6.1,0-11.2,4.7-11.6,10.8l-7.6,9.4c-2.4-1.8-5.2-3.1-8.2-3.6l-7-2.3
	c-0.5-0.2-1-0.2-1.5,0l-0.8-4.5c4.5-2.5,7.6-6.9,8.3-12h2.5c2.6,0,4.7-2.1,4.7-4.7v-2.4c0-2.2-1.6-4.2-3.8-4.6l3.1-3.1
	c0.4-0.4,0.7-1,0.7-1.7v-2.3c0-9.1-7.4-16.4-16.4-16.4h-14.1c-9.1,0-16.4,7.4-16.4,16.4v2.3c0,0.6,0.2,1.2,0.7,1.7l3.1,3.1
	c-2.2,0.4-3.8,2.4-3.8,4.6v2.3c0,2.6,2.1,4.7,4.7,4.7h2.5c0.8,5.1,3.8,9.5,8.3,12l-0.8,4.5c-0.5-0.2-1-0.2-1.5,0l-7,2.3
	c-3,0.5-5.8,1.8-8.2,3.6l-7.7-9.4C92.7,102.7,87.6,98,81.5,98H58.1c-1.3,0-2.3,1.1-2.3,2.3c0,6.4,5.3,11.7,11.7,11.7h8.1l15.4,24.1
	v4H62.8c-1.3,0-2.3,1-2.3,2.3v35.2h-2.3c-1.3,0-2.3,1.1-2.3,2.4l0,0v9.4c0,1.3,1.1,2.4,2.3,2.4h0h136.1c1.3,0,2.4-1.1,2.4-2.3v0V180
	C196.5,178.8,195.4,177.7,194.2,177.7z M168.4,144.9h4.7v4.7h-4.7V144.9z M163.7,144.9v7c0,1.3,1.1,2.4,2.3,2.4h0h9.4
	c1.3,0,2.4-1.1,2.4-2.3v0v-7h9.4v32.9h-32.9v-32.9L163.7,144.9z M170.7,102.7h20.7c-1,2.8-3.7,4.7-6.6,4.7h-20.7
	C165.1,104.5,167.7,102.7,170.7,102.7L170.7,102.7z M144.9,90.9h-2.4v-2.3h2.4V90.9z M109.7,90.9h-2.3v-2.3h2.3V90.9z M109.7,79.2
	v1.4l-2.3-2.3v-1.4c0-6.5,5.3-11.7,11.7-11.7h14.1c6.5,0,11.7,5.3,11.7,11.7v1.4l-2.4,2.3v-1.4c0-1.1-0.7-2-1.8-2.3L122,72.2
	c-0.5-0.1-1.1-0.1-1.6,0.2l-9.4,4.7C110.2,77.5,109.7,78.3,109.7,79.2z M114.4,93.3V80.7l7.3-3.7l16.1,4v12.3
	c0,6.5-5.2,11.7-11.7,11.7C119.6,105,114.4,99.8,114.4,93.3C114.4,93.3,114.4,93.3,114.4,93.3z M130.6,115.9l-4.5,4.5l-4.5-4.5
	l1.1-6.6c2.3,0.5,4.6,0.5,6.9,0L130.6,115.9z M116.1,117.1l8.3,8.4c0.9,0.9,2.4,0.9,3.3,0l8.3-8.4l2.6,0.9l-9.2,12.9h-7l-9.2-12.8
	L116.1,117.1z M130.4,144.9l2.6,15.6l-6.9,6.9l-6.9-6.9l2.6-15.6H130.4z M122.6,140.2l0.8-4.7h5.4l0.8,4.7H122.6z M67.5,107.3
	c-3,0-5.6-1.9-6.6-4.7h20.7c3,0,5.6,1.9,6.6,4.7H67.5z M81.1,112h8.7l20.4,25l3.6-2.9l-10.1-12.3c1.5-1.1,3.1-1.9,4.9-2.4l10.3,14.4
	l-4.6,27.2c-0.1,0.7,0.1,1.5,0.7,2l9.4,9.4c0.9,0.9,2.4,0.9,3.3,0l9.4-9.4c0.5-0.5,0.8-1.3,0.7-2l-4.6-27.2l10.3-14.4
	c1.8,0.5,3.4,1.3,4.9,2.4L138.4,134l3.6,3l20.4-25h8.7c-14.5,22.3-14.5,22.6-14.5,23.5v4.7h-4.7c-1.3,0-2.3,1-2.4,2.3v35.2h-46.9
	v-35.2c0-1.3-1.1-2.3-2.3-2.3h-4.7v-4.7c0-0.5-0.1-0.9-0.4-1.3L81.1,112z M79.2,144.9h4.7v4.7h-4.7V144.9z M65.1,144.9h9.4v7
	c0,1.3,1.1,2.4,2.3,2.4c0,0,0,0,0,0h9.4c1.3,0,2.3-1.1,2.3-2.4l0,0v-7H98v32.9H65.1V144.9z M191.8,187.1H60.4v-4.7h131.4
	L191.8,187.1z"/>
</svg>
