<?xml version="1.0" encoding="utf-8"?>
<!-- Generator: Adobe Illustrator 24.1.0, SVG Export Plug-In . SVG Version: 6.00 Build 0)  -->
<svg version="1.1" id="Layer_1" xmlns="http://www.w3.org/2000/svg" xmlns:xlink="http://www.w3.org/1999/xlink" x="0px" y="0px"
	 viewBox="0 0 252.2 252.2" style="enable-background:new 0 0 252.2 252.2;" xml:space="preserve">
<style type="text/css">
	.st0{fill:#161616;}
	.st1{fill:#FFFFFF;}
</style>
<circle class="st0" cx="126.1" cy="126.1" r="81.1"/>
<path class="st1" d="M137.4,79.7c-4.7,0-8.5,3.8-8.5,8.5c0,4.7,3.8,8.5,8.5,8.5s8.5-3.8,8.5-8.5C145.9,83.5,142.1,79.7,137.4,79.7z"
	/>
<path class="st1" d="M167.6,150.7c-1.1-1.1-2.9-1.1-4,0c0,0,0,0,0,0l-4,4c-0.5,0.5-1.3,0.8-2,0.8h-17.4v-17c0-1.9-0.9-3.7-2.5-4.7
	l-12.8-8.5l9.1-18.3c1.4-2.9,0.2-6.4-2.7-7.8c-0.7-0.4-1.5-0.5-2.3-0.6H112c-1.1,0-2.2,0.4-3.1,1l-16.9,11.4
	c-2.5,1.8-3.1,5.4-1.2,7.9c1.7,2.4,5,3,7.5,1.5l15.5-10.3h6.1l-7.2,14.4c-1.3,2.6-0.5,5.8,1.9,7.4l14.4,9.6v13.9h-14.1
	c-1.6-0.1-2.9,1.1-3,2.7c-0.1,1.6,1.1,2.9,2.7,3c0.1,0,0.2,0,0.3,0h3.3c-0.3,0.9-0.5,1.9-0.5,2.8c0,4.7,3.7,8.5,8.4,8.6
	c4.7,0,8.5-3.7,8.6-8.4c0-1-0.2-2-0.5-3h12.3c-0.3,0.9-0.5,1.9-0.5,2.8c0,4.7,3.8,8.5,8.5,8.5s8.5-3.8,8.5-8.5c0-1.4-0.3-2.7-1-3.9
	c0.7-0.4,1.3-0.8,1.9-1.4l4-4C168.8,153.6,168.8,151.8,167.6,150.7C167.6,150.7,167.6,150.7,167.6,150.7z M126.1,166.9
	c-1.6,0-2.8-1.3-2.8-2.8c0-1.6,1.3-2.8,2.8-2.8c1.6,0,2.8,1.3,2.8,2.8C128.9,165.6,127.7,166.9,126.1,166.9
	C126.1,166.9,126.1,166.9,126.1,166.9z M154.3,166.9c-1.6,0-2.8-1.3-2.8-2.8s1.3-2.8,2.8-2.8c1.6,0,2.8,1.3,2.8,2.8
	C157.2,165.6,155.9,166.9,154.3,166.9C154.4,166.9,154.4,166.9,154.3,166.9L154.3,166.9z"/>
<path class="st1" d="M111.4,136.7c-1.3-0.8-2.3-1.9-3.2-3.2l-5.4,10.8H89.4c-3.1-0.1-5.8,2.3-5.9,5.4s2.3,5.8,5.4,5.9
	c0.2,0,0.3,0,0.5,0h16.9c2.1,0,4.1-1.2,5-3.1l5.9-11.8L111.4,136.7z"/>
<path class="st1" d="M145.9,110.2h-7.1l-5.6,11.3h12.8c3.1,0.1,5.8-2.3,5.9-5.4c0.1-3.1-2.3-5.8-5.4-5.9
	C146.2,110.2,146,110.2,145.9,110.2z"/>
</svg>
