<?xml version="1.0" encoding="utf-8"?>
<!-- Generator: Adobe Illustrator 24.1.0, SVG Export Plug-In . SVG Version: 6.00 Build 0)  -->
<svg version="1.1" id="Layer_1" xmlns="http://www.w3.org/2000/svg" xmlns:xlink="http://www.w3.org/1999/xlink" x="0px" y="0px"
	 viewBox="0 0 252.2 252.2" style="enable-background:new 0 0 252.2 252.2;" xml:space="preserve">
<style type="text/css">
	.st0{fill:#161616;}
</style>
<path class="st0" d="M202.3,109.1l-75.1-36.3c-0.7-0.3-1.4-0.3-2.1,0L50,109.1c-0.8,0.4-1.4,1.2-1.4,2.2v88.1c0,0.9,0.5,1.8,1.4,2.2
	l75.1,36.3c0.7,0.3,1.4,0.3,2.1,0l75.1-36.3c0.8-0.4,1.4-1.3,1.4-2.2v-88.1C203.7,110.3,203.1,109.4,202.3,109.1z M126.1,77.7
	l69.5,33.6l-20.2,9.8c-0.1-0.1-0.3-0.2-0.4-0.3L106,87.4L126.1,77.7z M100.6,90.1l69.4,33.5l-14.2,6.9L86.4,97L100.6,90.1z
	 M171.6,128.2v25.4l-13.3,6.4v-25.4L171.6,128.2z M198.8,197.8l-70.3,33.9V149l16.8-8.1c1.2-0.6,1.7-2,1.1-3.2s-2-1.7-3.2-1.1l0,0
	l-17.1,8.2l-6.7-3.2c-1.2-0.5-2.7,0.1-3.2,1.3c-0.5,1.1,0,2.5,1.1,3.1l6.4,3.1v82.7l-70.3-33.9v-82.7l53.5,25.8
	c0.3,0.1,0.7,0.2,1,0.2c1.3,0,2.4-1.1,2.4-2.4c0-0.9-0.5-1.8-1.4-2.2l-52.4-25.3l24.1-11.6l72.8,35.1l0,0v29.1
	c0,0.8,0.4,1.6,1.1,2.1c0.4,0.2,0.8,0.4,1.3,0.4c0.4,0,0.7-0.1,1.1-0.2l18.1-8.8c0.8-0.4,1.4-1.2,1.4-2.2v-29.2l22.4-10.8
	L198.8,197.8L198.8,197.8z"/>
<path class="st0" d="M73.4,188.4l-11-5.3c-1.2-0.6-2.7-0.1-3.2,1.1s-0.1,2.7,1.1,3.2l11,5.3c0.3,0.2,0.7,0.2,1.1,0.2
	c1.3,0,2.4-1.1,2.4-2.4C74.8,189.6,74.3,188.8,73.4,188.4L73.4,188.4z"/>
<path class="st0" d="M83.6,181.8l-21.2-10.2c-1.2-0.6-2.7-0.1-3.2,1.1s-0.1,2.7,1.1,3.2l21.2,10.2c0.3,0.2,0.7,0.2,1.1,0.2
	c1.3,0,2.4-1.2,2.4-2.5C84.9,183,84.3,182.2,83.6,181.8L83.6,181.8z"/>
<path class="st0" d="M155,63.8c4.1,0,8.1-1,11.6-2.9l22.8,22.8l10.2-10.2l-22.8-22.8c6.4-12.1,1.9-27.1-10.2-33.5
	s-27.1-1.9-33.5,10.2c-6.4,12.1-1.9,27.1,10.2,33.5C146.9,62.8,150.9,63.8,155,63.8z M194.6,73.5l-5.1,5.1l-19.7-19.7
	c1.9-1.4,3.7-3.2,5.1-5.1L194.6,73.5z M155,17.9c11.7,0,21.2,9.4,21.2,21.1c0,11.7-9.4,21.2-21.1,21.2c-11.7,0-21.2-9.4-21.2-21.1
	c0,0,0,0,0,0C133.9,27.3,143.3,17.9,155,17.9z"/>
<path class="st0" d="M155,56.1c9.4,0,17.1-7.7,17.1-17.1c0-6.1-3.3-11.8-8.6-14.8l-1.8,3.1c6.5,3.7,8.7,12,5,18.5s-12,8.7-18.5,5
	s-8.7-12-5-18.5c3-5.3,9.2-7.9,15.1-6.4l0.9-3.5c-1.4-0.4-2.8-0.5-4.3-0.5c-9.4-0.2-17.3,7.2-17.5,16.7c-0.2,9.4,7.2,17.3,16.7,17.5
	C154.4,56.1,154.7,56.1,155,56.1L155,56.1z"/>
<path class="st0" d="M145.5,37.2h3.8v3.6h-3.8V37.2z"/>
<path class="st0" d="M153.1,37.2h3.9v3.6h-3.8L153.1,37.2z"/>
<path class="st0" d="M160.8,37.2h3.8v3.6h-3.8V37.2z"/>
</svg>
