<?xml version="1.0" encoding="utf-8"?>
<!-- Generator: Adobe Illustrator 24.1.0, SVG Export Plug-In . SVG Version: 6.00 Build 0)  -->
<svg version="1.1" id="Layer_1" xmlns="http://www.w3.org/2000/svg" xmlns:xlink="http://www.w3.org/1999/xlink" x="0px" y="0px"
	 viewBox="0 0 252.2 252.2" style="enable-background:new 0 0 252.2 252.2;" xml:space="preserve">
<style type="text/css">
	.st0{fill:#161616;}
</style>
<path class="st0" d="M195.3,118.4l-4.2-16.7c1.2-0.2,2-1.3,2-2.5v-2.7c0-5.8-4.8-10.6-10.6-10.6h-19v-5.6c0-2.9-2.3-5.2-5.2-5.2
	H61.7c-2.9,0-5.2,2.3-5.2,5.2v45.7c-0.2,1.4,0.8,2.6,2.2,2.8c1.4,0.2,2.6-0.8,2.8-2.2c0-0.2,0-0.4,0-0.6V80.4c0-0.1,0.1-0.2,0.2-0.2
	h96.7c0.1,0,0.2,0.1,0.2,0.2v45.7c-0.2,1.4,0.8,2.6,2.2,2.8c1.4,0.2,2.6-0.8,2.8-2.2c0-0.2,0-0.4,0-0.6v-2.8h29.7
	c3.6,0,6.7,2.3,7.8,5.7h-7.8c-1.4,0-2.5,1.1-2.5,2.5c0,0,0,0,0,0v5.4c0,4.4,3.5,7.9,7.9,7.9h2.9v11.1h-6.6
	c-2.9-8.3-12-12.7-20.3-9.9c-4.6,1.6-8.3,5.2-9.9,9.9h-1.2v-19c-0.2-1.4-1.4-2.4-2.8-2.2c-1.1,0.1-2,1-2.2,2.2v19h-52.2
	c-2.9-8.3-12-12.7-20.3-9.9c-4.6,1.6-8.3,5.2-9.9,9.9H61.7c-0.1,0-0.2-0.1-0.2-0.2v-5.5h10.9c1.4,0.2,2.6-0.8,2.8-2.2
	c0.2-1.4-0.8-2.6-2.2-2.8c-0.2,0-0.4,0-0.6,0H48.2c-1.4-0.2-2.6,0.8-2.8,2.2c-0.2,1.4,0.8,2.6,2.2,2.8c0.2,0,0.4,0,0.6,0h8.2v5.5
	c0,2.9,2.3,5.2,5.2,5.2h13.6v0.1c0,8.8,7.1,15.9,15.9,15.9s16-7.1,16-15.9l0,0c0-0.1,0-0.1,0-0.2h56.7v0.2c0,8.8,7.2,15.9,16,15.9
	c8.8,0,15.9-7.1,15.9-15.9c0-0.1,0-0.1,0-0.2h8.2c1.4,0,2.5-1.1,2.5-2.5c0,0,0,0,0,0v-26.8C206.5,124.9,201.7,119.4,195.3,118.4z
	 M163.6,91h19c3.1,0,5.5,2.5,5.5,5.5v0.2h-24.5V91z M163.6,118.2v-16.4h22.4l4.1,16.4L163.6,118.2z M91.2,172
	c-6,0-10.9-4.9-10.9-10.9c0-6,4.9-10.9,10.9-10.9c6,0,10.9,4.8,10.9,10.8C102.1,167,97.3,172,91.2,172C91.2,172,91.2,172,91.2,172z
	 M179.9,172c-6,0-10.9-4.9-10.9-10.9s4.9-10.9,10.9-10.9c6,0,10.9,4.8,10.9,10.8C190.8,167,185.9,172,179.9,172
	C179.9,172,179.9,172,179.9,172z M201.5,139.8h-2.9c-1.6,0-2.8-1.3-2.9-2.9V134h5.7L201.5,139.8L201.5,139.8z"/>
<path class="st0" d="M91.2,155.8c-2.9,0-5.2,2.3-5.2,5.2c0,2.9,2.3,5.2,5.2,5.2c2.9,0,5.2-2.3,5.2-5.2c0,0,0,0,0,0
	C96.4,158.2,94.1,155.8,91.2,155.8z"/>
<path class="st0" d="M179.9,155.8c-2.9,0-5.2,2.3-5.2,5.2s2.3,5.2,5.2,5.2s5.2-2.3,5.2-5.2c0,0,0,0,0,0
	C185,158.2,182.7,155.8,179.9,155.8z"/>
<path class="st0" d="M150.3,145.1h-37.6c-1.4,0.2-2.4,1.4-2.2,2.8c0.1,1.1,1,2,2.2,2.2h37.6c1.4-0.2,2.4-1.4,2.2-2.8
	C152.3,146.1,151.4,145.2,150.3,145.1z"/>
<path class="st0" d="M85.8,134.4H53.6c-1.4-0.2-2.6,0.8-2.8,2.2c-0.2,1.4,0.8,2.6,2.2,2.8c0.2,0,0.4,0,0.6,0h32.2
	c1.4-0.2,2.4-1.4,2.2-2.8C87.9,135.4,87,134.5,85.8,134.4z"/>
<path class="st0" d="M127.3,108.6h-24.2c-1.4-0.2-2.6,0.8-2.8,2.2c-0.2,1.4,0.8,2.6,2.2,2.8c0.2,0,0.4,0,0.6,0h24.2
	c1.4-0.2,2.4-1.4,2.2-2.8C129.3,109.7,128.4,108.8,127.3,108.6z"/>
<path class="st0" d="M93.1,100.3c-1.1-0.5-2.4,0.1-2.8,1.2c0,0,0,0,0,0c-5.4,13.2,1,28.2,14.1,33.6s28.2-1,33.6-14.1
	c5.4-13.2-1-28.2-14.1-33.6c-9.7-3.9-20.7-1.7-28.1,5.7c-0.9,0.8-1,2.1-0.2,3c0.8,0.9,2.1,1,3,0.2c0.1-0.1,0.2-0.2,0.2-0.3
	c8.3-8.4,21.9-8.5,30.3-0.2s8.5,21.9,0.2,30.3s-21.9,8.5-30.3,0.2c-6.2-6.1-8.1-15.3-4.8-23.3C94.7,102,94.2,100.7,93.1,100.3
	C93.1,100.3,93.1,100.3,93.1,100.3L93.1,100.3z"/>
</svg>
