<?xml version="1.0" encoding="utf-8"?>
<!-- Generator: Adobe Illustrator 24.1.0, SVG Export Plug-In . SVG Version: 6.00 Build 0)  -->
<svg version="1.1" id="Layer_1" xmlns="http://www.w3.org/2000/svg" xmlns:xlink="http://www.w3.org/1999/xlink" x="0px" y="0px"
	 viewBox="0 0 252.2 252.2" style="enable-background:new 0 0 252.2 252.2;" xml:space="preserve">
<style type="text/css">
	.st0{fill:#161616;}
</style>
<path class="st0" d="M91.6,71.9H71.2c-1.1,0-2,0.9-2,2v8.1c0,1.1,0.9,2,2,2h20.3c1.1,0,2-0.9,2-2v-2h7.7l18.5,25.1h-14
	c-0.9,0-1.8,0.6-2,1.5L79.4,194c-0.3,1.1,0.4,2.2,1.4,2.4c0,0,0,0,0.1,0c0.2,0,0.3,0.1,0.5,0.1h12.2c0.9,0,1.8-0.6,2-1.5l4.4-16.7
	h22v16.3c0,1.1,0.9,2,2,2h12.2c1.1,0,2-0.9,2-2v-16.3H162l4.8,16.7c0.2,0.9,1.1,1.6,2,1.5H181c1.1,0,2-0.9,2-2c0-0.2,0-0.4,0-0.5
	l-26.4-87.4c-0.2-0.9-1.1-1.6-2-1.5h-18.3v-23h2c1.1,0,2-0.9,2-2V76h6.1c1.1,0,2-0.9,2-2v-2h10.2c1.1,0,2-0.9,2-2v-8.2
	c0-1.1-0.9-2-2-2h-10.1v-2c0-1.1-0.9-2-2-2h-32.5c-1.1,0-2,0.9-2,2V74c0,1.1,0.9,2,2,2h6.1v4.1c0,1.1,0.9,2,2,2h2v22l-21.5-27.9
	c-0.3-0.1-0.5-0.2-0.8-0.2h-8.1v-2c0-1.1-0.8-2-1.9-2.1C91.6,71.9,91.6,71.9,91.6,71.9z M105.3,117.3h8l-4.9,16.3h-8L105.3,117.3z
	 M99.2,137.6h8l-13.1,46.7h-8L99.2,137.6z M92,192.5h-8l1-4.1h8L92,192.5z M101.1,174.2l16.3-56.9h4.6v56.9H101.1z M134.2,184.4
	h-8.1v-50.8h8.1V184.4z M134.2,129.5h-8.1v-12.2h8.1V129.5z M134.2,192.5h-8.1v-4.1h8.1V192.5z M138.3,174.2v-56.9h4.6l17.8,56.9
	H138.3z M170.4,192.5l-1-4.1h8l1,4.1H170.4z M168.2,184.4l-15-46.7h7.9l15,46.7H168.2z M152,133.6l-4.9-16.3h8l4.9,16.3H152z
	 M154,113.3h-47.6l1-4.1H153L154,113.3z M136.3,78h-12.2v-8.1h12.2V78z M156.6,63.8v4.1h-8.1v-4.1H156.6z M120,67.9v4.1h-4V59.7
	h28.4v12.2h-4.1v-4.1c0-1.1-0.9-2-2-2h-16.3C121,65.8,120,66.7,120,67.9C120,67.8,120,67.8,120,67.9z M132.2,82.1v23h-4.1v-23H132.2
	z M73.3,80.1V76h16.3v4.1L73.3,80.1z"/>
</svg>
