<?xml version="1.0" encoding="utf-8"?>
<!-- Generator: Adobe Illustrator 24.1.0, SVG Export Plug-In . SVG Version: 6.00 Build 0)  -->
<svg version="1.1" id="Layer_1" xmlns="http://www.w3.org/2000/svg" xmlns:xlink="http://www.w3.org/1999/xlink" x="0px" y="0px"
	 viewBox="0 0 252.2 252.2" style="enable-background:new 0 0 252.2 252.2;" xml:space="preserve">
<style type="text/css">
	.st0{fill:#161616;}
</style>
<path class="st0" d="M156,124.5h-17V70.3c0-1.3-1-2.3-2.3-2.3c-0.6,0-1.2,0.2-1.6,0.7l-6.5,6.5l-6.6-6.5c-0.9-0.9-2.3-0.9-3.2,0
	c0,0,0,0,0,0l-6.5,6.5l-6.5-6.5c-0.9-0.9-2.3-0.9-3.2,0c0,0,0,0,0,0L96,75.2l-6.5-6.5c-0.9-0.9-2.3-0.9-3.2,0c0,0,0,0,0,0l-6.5,6.5
	l-6.5-6.5c-0.9-0.9-2.3-0.9-3.2,0c0,0,0,0,0,0l-6.5,6.5L57,68.7c-0.9-0.9-2.3-1-3.2-0.2C53.2,69,53,69.6,53,70.3v103.4
	c0,6.6,5.4,12,12,12h81.4c6.6,0,12-5.4,11.9-12v-46.9C158.3,125.5,157.3,124.5,156,124.5C156,124.5,156,124.5,156,124.5z M65,181.1
	c-4.1,0-7.3-3.3-7.3-7.4V75.8l4.2,4.2c0.9,0.9,2.3,0.9,3.2,0c0,0,0,0,0,0l6.5-6.5l6.5,6.5c0.9,0.9,2.3,0.9,3.2,0c0,0,0,0,0,0
	l6.5-6.5l6.5,6.5c0.9,0.9,2.3,0.9,3.2,0c0,0,0,0,0,0l6.5-6.5l6.5,6.5c0.9,0.9,2.3,0.9,3.2,0c0,0,0,0,0,0l6.5-6.5l6.5,6.5
	c0.9,0.9,2.3,0.9,3.2,0c0,0,0,0,0,0l4.2-4.2v97.9c0,2.7,0.9,5.3,2.5,7.4H65z M153.7,173.7c-0.1,4.1-3.6,7.2-7.6,7.1
	c-3.9-0.1-6.9-3.2-7.1-7.1v-44.6h14.7L153.7,173.7L153.7,173.7z"/>
<path class="st0" d="M119.1,104.5h-4.5c-1.3,0-2.3,1-2.3,2.3c0,1.3,1,2.3,2.3,2.3h4.5c1.3,0,2.3-1,2.3-2.3S120.4,104.5,119.1,104.5
	C119.1,104.5,119.1,104.5,119.1,104.5z"/>
<path class="st0" d="M77.4,104.5h-4.5c-1.3,0-2.3,1-2.3,2.3c0,1.3,1,2.3,2.3,2.3h4.5c1.3,0,2.3-1,2.3-2.3
	C79.7,105.5,78.7,104.5,77.4,104.5z"/>
<path class="st0" d="M120.3,130H83.8c-1.3,0-2.3,1-2.3,2.3s1,2.3,2.3,2.3l0,0h36.4c1.3,0,2.3-1,2.3-2.3S121.5,130,120.3,130z"/>
<path class="st0" d="M73.4,130.7c-0.9-0.9-2.3-0.9-3.2,0c-0.4,0.4-0.7,1-0.7,1.6c0,0.6,0.2,1.2,0.7,1.6c0.9,0.9,2.3,0.9,3.2,0
	c0,0,0,0,0,0c0.4-0.4,0.7-1,0.7-1.6C74.1,131.7,73.8,131.1,73.4,130.7z"/>
<path class="st0" d="M120.3,145.2H83.8c-1.3-0.1-2.4,0.9-2.4,2.1c-0.1,1.3,0.9,2.4,2.1,2.4c0.1,0,0.2,0,0.3,0h36.4
	c1.3,0.1,2.4-0.9,2.4-2.1c0.1-1.3-0.9-2.4-2.1-2.4C120.5,145.2,120.4,145.2,120.3,145.2z"/>
<path class="st0" d="M73.4,145.9c-0.9-0.9-2.4-0.9-3.3,0c-0.9,0.9-0.9,2.4,0,3.3s2.4,0.9,3.3,0c0.4-0.4,0.7-1,0.7-1.6
	C74.1,146.9,73.8,146.3,73.4,145.9z"/>
<path class="st0" d="M120.3,160.4H83.8c-1.3-0.1-2.4,0.9-2.4,2.1c-0.1,1.3,0.9,2.4,2.1,2.4c0.1,0,0.2,0,0.3,0h36.4
	c1.3,0.1,2.4-0.9,2.4-2.1c0.1-1.3-0.9-2.4-2.1-2.4C120.5,160.4,120.4,160.4,120.3,160.4z"/>
<path class="st0" d="M73.4,161c-0.9-0.9-2.4-0.9-3.3,0c-0.9,0.9-0.9,2.4,0,3.3s2.4,0.9,3.3,0c0.4-0.4,0.7-1,0.7-1.6
	C74,162,73.8,161.4,73.4,161z"/>
<path class="st0" d="M174.6,96.2V81.9c-0.1-1.4-1.3-2.5-2.7-2.4c-1.3,0.1-2.3,1.1-2.4,2.4v14.3c-0.1,1.4,1,2.7,2.4,2.7
	c1.4,0.1,2.7-1,2.7-2.4C174.6,96.5,174.6,96.3,174.6,96.2z"/>
<path class="st0" d="M172,98.8h10c1.4,0,2.6-1.2,2.6-2.6c0-1.4-1.2-2.6-2.6-2.6h-10c-1.4,0-2.6,1.2-2.6,2.6
	C169.4,97.7,170.6,98.8,172,98.8z"/>
<path class="st0" d="M151.2,81.8c-1.1-0.5-2.4,0.1-2.9,1.2c0,0,0,0,0,0c-5.5,13.5,0.9,28.9,14.4,34.5c13.5,5.5,28.9-0.9,34.5-14.4
	c5.5-13.5-0.9-28.9-14.4-34.5c-9.9-4.1-21.2-1.8-28.8,5.8c-0.8,0.9-0.7,2.3,0.2,3.1c0.8,0.8,2.1,0.7,3,0c8.5-8.6,22.5-8.7,31.1-0.2
	s8.7,22.5,0.2,31.1s-22.5,8.7-31.1,0.2c-6.3-6.3-8.3-15.7-4.9-23.9C152.9,83.6,152.3,82.3,151.2,81.8L151.2,81.8z"/>
<path class="st0" d="M106.9,99.1H102c-0.2-1.5-0.9-2.8-2.1-3.8h7c0.6,0,1.2-0.5,1.2-1.2s-0.5-1.2-1.2-1.2H88.1
	c-0.9-0.1-1.6,0.6-1.7,1.4c-0.1,0.9,0.6,1.6,1.4,1.7c0.1,0,0.2,0,0.3,0h3.1c3.5,0,5.7,1.1,6.4,2.9h-9.9c-0.6,0-1.2,0.5-1.2,1.2
	s0.5,1.2,1.2,1.2l0,0h10.1c-0.1,0.8-0.5,1.5-1,2c-0.8,0.7-1.7,1.2-2.8,1.4c-0.7,0.2-1.3,0.3-2,0.3c-0.8,0.1-1.5,0-2.2,0
	c-0.6,0-1.2,0.2-1.6,0.6c-0.2,0.3-0.4,0.7-0.3,1.1c0.1,1.4,1.1,2,2,2.9c0.7,0.7,11.2,11.7,11.2,11.7c0.7,0.6,1.7,0.7,2.4,0.1
	c0.8-0.6,0.9-1.8,0.3-2.6l-0.2-0.2c-3.6-3.9-7.2-7.8-10.6-10.8c5.2-0.2,8.7-2.7,9.3-6.6h4.8c0.6,0,1.2-0.5,1.2-1.2
	S107.6,99.1,106.9,99.1L106.9,99.1z"/>
</svg>
