<?xml version="1.0" encoding="utf-8"?>
<!-- Generator: Adobe Illustrator 24.1.0, SVG Export Plug-In . SVG Version: 6.00 Build 0)  -->
<svg version="1.1" id="Layer_1" xmlns="http://www.w3.org/2000/svg" xmlns:xlink="http://www.w3.org/1999/xlink" x="0px" y="0px"
	 viewBox="0 0 252.2 252.2" style="enable-background:new 0 0 252.2 252.2;" xml:space="preserve">
<style type="text/css">
	.st0{fill:#161616;}
</style>
<path class="st0" d="M126.1,78.6c-7.7,0-14-6.2-14-13.9s6.2-14,13.9-14s14,6.2,14,13.9c0,0,0,0,0,0
	C140.1,72.3,133.8,78.6,126.1,78.6z M126.1,55.7c-5,0-9,4-9,9s4,9,9,9c5,0,9-4,9-9v0C135.1,59.7,131.1,55.7,126.1,55.7z"/>
<path class="st0" d="M126.1,201.5c-7.7,0-14-6.2-14-14c0-7.7,6.2-14,14-14c7.7,0,14,6.2,14,13.9c0,0,0,0.1,0,0.1
	C140,195.3,133.8,201.5,126.1,201.5z M126.1,178.6c-5,0-9,4-9,9c0,5,4,9,9,9c5,0,9-4,9-9l0,0C135.1,182.6,131.1,178.6,126.1,178.6z"
	/>
<path class="st0" d="M181.8,112.9c-7.7,0-13.9-6.2-13.9-14c0-7.7,6.2-13.9,14-13.9c7.7,0,13.9,6.2,13.9,14c0,0,0,0,0,0
	C195.8,106.7,189.5,112.9,181.8,112.9z M181.8,90c-5,0-9,4-9,9s4,9,9,9s9-4,9-9S186.8,90,181.8,90z"/>
<path class="st0" d="M70.4,112.9c-7.7,0-13.9-6.2-13.9-14c0-7.7,6.2-13.9,14-13.9s13.9,6.2,13.9,14c0,0,0,0,0,0
	C84.3,106.7,78.1,112.9,70.4,112.9z M70.4,90c-5,0-9,4-9,9s4,9,9,9s9-4,9-9S75.4,90,70.4,90z"/>
<path class="st0" d="M181.8,167.5c-7.7,0-14-6.2-14-13.9s6.2-14,13.9-14s14,6.2,14,13.9c0,0,0,0,0,0
	C195.8,161.2,189.6,167.5,181.8,167.5z M181.8,144.6c-5,0-9,4-9,9s4,9,9,9s9-4,9-9S186.8,144.6,181.8,144.6z"/>
<path class="st0" d="M70.4,167.5c-7.7,0-14-6.3-14-14s6.3-14,14-14s14,6.3,14,14S78.1,167.5,70.4,167.5z M70.4,144.6c-5,0-9,4-9,9
	s4,9,9,9s9-4,9-9S75.4,144.6,70.4,144.6z"/>
<path class="st0" d="M126.1,190.5L67.9,155V97.6l58.2-35.8l58.2,35.8V155L126.1,190.5z M72.9,152.2l53.2,32.5l53.2-32.5v-51.8
	l-53.2-32.8l-53.2,32.8L72.9,152.2z"/>
<path class="st0" d="M151.1,152h-50.1v-30.3h50.1V152z M106,147h40.1v-20.3h-40.1L106,147z"/>
<path class="st0" d="M142,126.7h-31.8v-15.9c0-8.8,7.1-15.9,15.9-15.9S142,102,142,110.8V126.7z M115.2,121.7h21.9v-10.9
	c-0.6-6-6-10.5-12-9.9c-5.2,0.5-9.4,4.7-9.9,9.9V121.7z"/>
</svg>
