<svg id="Layer_1" data-name="Layer 1" xmlns="http://www.w3.org/2000/svg" viewBox="0 0 252.24 252.24"><defs><style>.cls-1{fill:#ff002b;}</style></defs><path class="cls-1" d="M126.12,75.3a50.82,50.82,0,1,0,50.82,50.82A50.88,50.88,0,0,0,126.12,75.3Zm20.14,42.36c0,.41,0,.82,0,1.25,0,12.73-9.69,27.42-27.43,27.42A27.08,27.08,0,0,1,104.08,142a17.58,17.58,0,0,0,2.31.14,19.41,19.41,0,0,0,12-4.11,9.74,9.74,0,0,1-9-6.72,8.54,8.54,0,0,0,1.83.17,9.77,9.77,0,0,0,2.52-.32,9.69,9.69,0,0,1-7.72-9.47v-.1a9.65,9.65,0,0,0,4.36,1.18,9.63,9.63,0,0,1-3-12.88A27.3,27.3,0,0,0,127.22,120a9.83,9.83,0,0,1-.23-2.2,9.64,9.64,0,0,1,16.67-6.59,19.13,19.13,0,0,0,6.12-2.33,9.63,9.63,0,0,1-4.24,5.33,20.46,20.46,0,0,0,5.55-1.52A19.3,19.3,0,0,1,146.26,117.66Z"/></svg>